/* XPM */
static char *result[] = {
/* columns rows colors chars-per-pixel */
"64 64 189 2 ",
"   c #2F11000",
".  c #311B01",
"X  c #322103",
"o  c #542B00",
"O  c #5E2E01",
"+  c #553102",
"@  c #5C3401",
"#  c #5F3801",
"$  c #643302",
"%  c #673703",
"&  c #6C3A01",
"*  c #643D0C",
"=  c #723D02",
"-  c #3C6417",
";  c #336F17",
":  c #357216",
">  c #397416",
",  c #3A7916",
"<  c #367319",
"1  c #3B751B",
"2  c #3D791B",
"3  c #3E7621",
"4  c #3F7A20",
"5  c #45560F",
"6  c #4B5D13",
"7  c #6D4104",
"8  c #68420E",
"9  c #754101",
"0  c #76490E",
"q  c #7C520F",
"w  c #6F4A13",
"e  c #744D16",
"r  c #6E501A",
"t  c #775019",
"y  c #7A541A",
"u  c #436312",
"i  c #476916",
"p  c #476A1B",
"a  c #4B6B1A",
"s  c #57661A",
"d  c #47741D",
"f  c #437D1D",
"g  c #52711C",
"h  c #5C7A1F",
"j  c #606F1E",
"k  c #407722",
"l  c #437C22",
"z  c #487F23",
"x  c #457B28",
"c  c #4A7E2A",
"v  c #557C22",
"b  c #587E28",
"n  c #647520",
"m  c #8C5101",
"M  c #8D5806",
"N  c #8D5D09",
"B  c #845B19",
"V  c #A15D19",
"C  c #8B681F",
"Z  c #AF6319",
"A  c #B3641A",
"S  c #B46A1A",
"D  c #CE6607",
"F  c #D56B0C",
"G  c #DA6C0A",
"H  c #DF7209",
"J  c #C26D1B",
"K  c #C86E19",
"L  c #C2721C",
"P  c #C97319",
"I  c #E26F08",
"U  c #E3720C",
"Y  c #EB750B",
"T  c #E87A0E",
"R  c #F07709",
"E  c #F17B09",
"W  c #E07210",
"Q  c #46811E",
"!  c #49821F",
"~  c #4B881D",
"^  c #468123",
"/  c #4C8424",
"(  c #4E8925",
")  c #478028",
"_  c #4D842B",
"`  c #4E8928",
"'  c #508724",
"]  c #538A25",
"[  c #588F27",
"{  c #51862B",
"}  c #5D8529",
"|  c #548C29",
" . c #588F29",
".. c #559427",
"X. c #599127",
"o. c #539927",
"O. c #57912B",
"+. c #5C942B",
"@. c #5E992B",
"#. c #528530",
"$. c #568A31",
"%. c #5A8E34",
"&. c #5D9333",
"*. c #638323",
"=. c #668729",
"-. c #60972E",
";. c #6F942F",
":. c #639B2C",
">. c #689F2C",
",. c #649D32",
"<. c #689F33",
"1. c #659A3A",
"2. c #689E3A",
"3. c #5EA42B",
"4. c #67A12D",
"5. c #69A42E",
"6. c #6DA82F",
"7. c #67A133",
"8. c #6BA435",
"9. c #6EA932",
"0. c #6DA53A",
"q. c #6FA939",
"w. c #72AC34",
"e. c #71A73E",
"r. c #73AB3B",
"t. c #71B134",
"y. c #77B03C",
"u. c #79B23E",
"i. c #71A740",
"p. c #76AD41",
"a. c #E48C03",
"s. c #F38109",
"d. c #EC9303",
"f. c #F19603",
"g. c #FB9405",
"h. c #F59E07",
"j. c #FD9D03",
"k. c #F49409",
"l. c #DEA512",
"z. c #FFA206",
"x. c #FEA50B",
"c. c #FFA80B",
"v. c #EAAE14",
"b. c #ECA919",
"n. c #FDAC12",
"m. c #FEAA14",
"M. c #F7A91D",
"N. c #ECB41F",
"B. c #FDB514",
"V. c #FFBE16",
"C. c #F4B318",
"Z. c #FFB71B",
"A. c #F7B91A",
"S. c #FDAF21",
"D. c #F9B822",
"F. c #FFC41D",
"G. c #FFC81F",
"H. c #FFC422",
"J. c #FECA24",
"K. c #FEC62A",
"L. c #FDC92A",
"P. c #FDCE35",
"I. c #FFDC36",
"U. c #FFE53C",
"Y. c #FFE93E",
"T. c #E7C651",
"R. c #EDCE55",
"E. c #F2D256",
"W. c #F8DA59",
"Q. c #FFDF5C",
"!. c #FFED41",
"~. c #FFF043",
"^. c #FEF24A",
"/. c #FEE25F",
"(. c #DDDE6C",
"). c #E0E46F",
"_. c #EBE56B",
"`. c #FEE461",
"'. c #F9EC65",
"]. c #F8ED68",
"[. c #F8F16B",
"{. c #E1E470",
"}. c #E6EC73",
"|. c #EBEE73",
" X c #ECF376",
".X c #F7F573",
"XX c #F7FB75",
"oX c #F8F971",
"OX c #F6FD7B",
/* pixels */
"' ' .. .z  .@./ [ :./ ' ' / +.( ' / :./ ] ' 4.z :.] z 7.7.( Q 8., +.~ 4.1 :.] z u.8.z / r.> :.~ X.1 X.] / r.:.l ( r.z :.X.] ^ ] ",
"2 @.' 7.' ' >.z ' [ ( / / > 6.( y./ ' >.f ' :./ f ' ! 6.' y., ' +.f ' :.( ,  .' @.] :., ] ] / ( X.' f {  .] +. .Q X.' ' ~ ' ' ^ ",
":.( z / ] f ] ! 8.: ' 2 2 :./ / / ] 2 ' f :.l ( l / X.^ ( / ' 2 / / ] z z 2  .] l ( ' ( ! / 8./ ( 3 : @.' l ( ] / / / r.> ' 1 : ",
":., ^ ( w.1 /  .l ' l : 8.@.Q l ' 5.+.f +.z / ^ 2 r.( ( > ' +.7.l +./ / ^ l 9.l ' , ] ^ r.z / / 1 l 2 >.> / Q +.: <.' l ' 1 : / ",
"q., +.l :./ : f ( / ,.: ] q.( ! 3 :.r.: < z ] ,.2 ,.r.@.: l X.u.! 2 1 &.| ^ r.7.q.< / / @./ ^ < 0./ ' u.^ w.2 +.> / / / l 0.: ' ",
"f 1./ > l ../  ./ 0.l , u.^ i./ / k :.' f / &.l Q r._ 0.^ ' 4 +.' 2 f _ l ( +.| $.3 ' l z +.f ( x 2 ] Q %.c : / / f +./ 8.l > ,.",
"> <.1 / %.< 8.1 3 ^ z x @.< e.> { { ^ ,.4 3 ^ ( _ ] l 0.4 &./  .:.l 3 4 ' +.( / +.z 0.! 8. .2 3 : / 9.z @./ z 0.> q.f 2 z : ^ q.",
"] _ l +./ ' [ > f > 0. .l @.x f 9.( ] ] Q / Q r.( / r.l l 7.' X.' f / / r./ / e./ z { ' @.z > 4 ( e.1 ] %./ ' c ' +.: : > +.&.1 ",
"/ ( l ] / _ 1 / z +.` ( 2 ( / ^ [ l ' 1 z l r.l ] l ] 2 ' ] 3 / ^ l ^ r.: / 3 ' > ' | 3 ^ / z ^ 8.: 1 l ' < ' ' ^ l ' z / @./ < ",
"0.2 { 2 +.2./ / 3 z ( 3 &.8.2 _ ( ] 1./ ^ z / / / ` ] l ^ ( f &./ 2 / _ / &.( 2 ` 4 ' ^ { / < _ z / r.+.2 | 2 [ ,./ / ; ) ^ l p.",
"' / z p./ _ @.z ] / / 3 w.] / 3 1.1 { ] l @.: / 3 w.' { < 1./ $.' l w.: ^ z @.( ] / u.( 8.' z w.3 ^ '  ./ ] e.r.( 8./ / @./ 3 @.",
"' l ( X.l / f r.^ / < ,./ @.3 / >.k l z <.` / z  ./ u.l 1 >.2 l ` +.+./ <.' z r.z f | l k O.f +.^ q.' z $.' ( c / 3 r.1 / 3 8.' ",
"w.> / ] ' y.' /  .q.z :.< w.f ^ :.f 7.! ' z +.( =.5 h u . $ # # # # X p p *.i / z k X./ ' : 6.Q z ( +.+.> z / ] r.' f 5.7.z ] / ",
"^ ] / ,.l ' 7./ ' +./ ( ] l :./  .z  .+.' ' *.6 o 9 9 9 m z.z.z.z.d.@ # @ @ X - =.r.z / r.2 @.' +.: +./ / 8.8.k / r.f -.O.] l ] ",
"Q +.( 3.' ' :./ +.~ z ( / , 9.' t.! ' :.2 s o 9 m z.x.z.z.x.V.V.V.z.z.z.c.f.@ + . d v 2 ' ] / >.X./ , ,.[ ] o.] ! X.' ] ~ ( ( 2 ",
"5./ / l +.2 ( ' :.1 ' < 2 4.^ / f +., ( s o m z.c.L.V.F.L.V.V.V.F.V.V.V.V.z.z.z.@ + . a ( ^ 8./ / 4 : +./ z ^ ] z ' / q.2 ( : : ",
",., z ' 9.f 1 ' l ' ^ : @.O.f l ' 6.8.5 o M x.V.K.].V.D._.B.C.B.C.B.C.B.V.V.V.V.x.h.@   b l / ^ 1 f / r.: ( Q +.> | z z / < : ' ",
"7.f @.2 +.( < ! / ` &.<  .7.+./ k :.n o N V.V.V.V.C.n.W A F K Y K F Z T B.C.B.F.V.V.h.@ . d 4 ; q./ ( u./ 0.2  .2 / ( ^ l 0.2 ' ",
", e.l > ( ] ' 8./ 7.z > u.2 1.^ Q 6 o N L.V.V.B.b.K W V 9 B G R D e y Z U K E B.F.V.V.h.+ . - ..3 3 +.Q 0.3 < ' ^ f 9.z ,.l > 7.",
"f 8.1 | %.1 ,.: 2 x Q _ +.1 r.1 s o N K.'.V.n.W K W S 7 H.R.$ I 8 `.|.@ K E R s.B.F.G.K.h.@   - < ] :.! ,.' / 2.2 r.> > l : | :.",
"' x 2 +.l ] ] > z > <.' l O.1 5 o C V.V.V.n.W J U K F 7 F.R.$ I * /.|.$ k.x.z.j.s.U.!.XXF.z.+   } | > ( $.f ] x ' ` > > : 0.' < ",
"| ( l / ' z > / 3 @./  .l +.a o C /.F.V.n.W K F A F V & H.R.$ D 8 `.|.@ S B.F.V.z.s.U.!.Y.F.z.+ . > f l ' < ' / x l / l ' +./ 2 ",
"8.< $.( 8.&.8./ l l / 1 <.@.6 = x.G.F.n.W K F o 7 w e B K.R.w w B `.|.r y H B.V.V.j.s.!.Y.Y.F.f.. - p.q.2 0.^ @./ ,.( : z l 1 u.",
"/ ( l e./ { +./ / / ) k 9.a o m B.Y.Z.U P U A 7 F.Q.Q.Q.Q.Q.Q.Q.Q.Q.Q.OX|.y H Z.V.V.h.z.U.V.V.j.+ . |  ./ z 8.2.' :./ l +.^ 3 +.",
" .1 ' [ z / f 8.( l > r.l j 9 n.~.!.P.s.g.P F 7 F.Q.Q.Q.Q.Q.Q.Q.Q.Q.Q.Q.Q.|.t U B.V.B.z.B.F.V.V.j.. d ( ` ' ' ' / ^ -./ z l r./ ",
"9.f z [ ' r.' ^ ] r.l +.u o m n.~.U.s.k.s.k.S 7 N.R.W.Q.Q.`.R.R.R.R.R.Q.Q.Q.|.t I j.z.z.j.V.V.V.h.o . +.f ] / ' 8.' f 5.8.l ] ( ",
"2 -.2 r.f z r.l / X.' / g 9 j.Z.~.I.g.s.g.s.a.& & 7 F.Q./.}.o % % & q R.Q.Q.Q. X$ j.j.j.z.B.F.V.z.h.. ^ ' | y./ l 9.l ] ] | f ' ",
"! X./ 3.' ' :./ -.Q l / a 9 n.~.U.x.E j.E j.E z.d.& H.Q.Q.|.$ R j.z.f.* Q.Q./. X$ z.j.z.j.z.V.V.V.j.  8. .] o.] / ] ( ] ~ ' / > ",
"4.^ ( 2 :., / O. .f / > u 9 n.~.!.I.j.z.j.j.j.j.d.7 F.Q.`.}.% U d.d.a.y Q.Q.`.(.= j.j.j.z.j.V.V.V.f.. v / / 1 X.2 ] / @./ / : : ",
"9.: / ( 6.( ; z l ' ` > o 9 n.~.U.c.j.z.j.z.z.j.d.7 H.Q.`._.8 8 8 8 y Q.Q.`.(.= R E g.E g.E V.V.V.j.. . < ' z +.1 ) l / / 2 : ' ",
",.( [ 1 ' ! 1 / / O.{ 1 o 9 n.~.~.I.j.j.j.j.z.j.d.7 H.Q.Q.Q.Q.Q.`.Q.Q.Q.Q.|.e I R g.R j.E j.V.V.B.j.    ~ -., ' 1 ( ' / ^ %.f ' ",
"> e.2 > ' ( X.8.z -./ 1 o 9 n.!.U.c.z.j.z.j.j.z.d.7 H.Q.Q.`.R.R.R.R.R.Q.Q.Q.|.0 I Y j.R j.E F.V.V.j.  . r.2 : ' f f 0.l :.1 2 0.",
"/ 0./ &.| / :.: 3 l / <.o 9 B.Y.~.I.z.j.z.z.z.V.v.7 H.Q./.|.o % % & 0 E./.Q.Q.E.0 I Y R R j.V.V.V.f.. . 0.] { %./ w.> : 1 > 2.] ",
") z 2 +.l ' / 2 / > &.' o 9 z.J.U.j.j.z.V.V.F.V.v.& F.Q./.|.$ R z.j.f.0 E.Q.Q.Q.W.O Y R g.R F.V.V.j.    { 2  .l / / 1 f > p./ > ",
"7./ z z / c : / 3 +./ +.o 9 n.U.V.j.z.V.V.V.V.V.v.7 H.Q./.}.$ R j.j.z.f.* Q.Q./. XO J Y R R F.V.V.j.  . ( 1 / l x 3 ( 3 ] ] / ( ",
",.< %.O.8.| r./ ^ l / > =.9 z.P.'.n.z.F.V.V.F.C.l.7 F.Q./.}.% I f.f.f.a.e Q.Q./. XO W J R E V.V.V.j.. r.> e.| <.z 8./ 1 / l < r.",
"l / 3 <.c ' ] ] ^ ! ^ l n 9 D.].P.'.x.V.V.V.v.o % q J.Q./._.* * * * * e Q.Q.Q./.{.$ J Y R z.B.V.B.j.. ' ] 3  .%.] ] ] 1 +.l 3 +.",
":.< '  .'  .f @.' z 1 r.u 9 f.S.].V.j.j.V.V.v.7 H./.Q.Q.Q.Q./.Q.Q.Q.Q.Q.Q.Q./.).$ J W J E z.z.V.j.d.. ' ^ ' ' | { ~ | +.k z q./ ",
":./ ( ] ' <.' z ..9.l X.a @ 9 x.V.V.V.x.V.F.v.7 H./.Q.Q.Q.Q.Q.Q.Q.Q.Q./.`.`.).% J U S R j.z.B.z.f.. X +.( 7.] ' O.+.2 4.4.^ ' ] ",
"> ,.2 r.f z r.l z X.' ^ ' - 9 h.V.V.V.j.z.V.v.7 D.E.E.E.Q.Q.E.W.E.Q.`. X X).$ J Y J Y L z.j.z.j.d.. ( f ] / r./ l ,.z ' ' ] ^ ( ",
"~ ] z o.] ( +.! r., / / ^ u + 9 z.V.V.V.z.j.d.$ $ $ @ & H.R.o O 8 /.|.o $ % S Y J Y L j.z.j.z.f.  X > 5.' / o.] ( / ' :.2 ' x : ",
":.f ( f 9., / -./ / / : ] :.u 9 h.V.F.U.V.z.j.j.j.j.d.7 G.R.$ I 8 /.|.$ U J Y J W L j.m.V.H.V.d.. 2 : +.^ ( 2 @.> +.' ' ' z : 2 ",
"r.> / / 4.' : l / _ ,.: ] r.i o = h.V.G.U.V.z.j.j.z.d.7 H.R.$ U * `.|.+ J Y J Y L j.m.XXJ..Xd.  X / ' q.> ] ^ X.1 z k ( ^ / : ] ",
":.| ' , / ! l f / ,.x 2 ,.+.r.g o 9 h.V.J.U.V.j.x.z.d.9 A.T.= f.e W.{.& E j.z.z.m.J..XJ..Xd.  X %./ / 8./ +.> / f z ' / ` _ f ..",
"> 8.2 : ' 2 8.| l ' / l 8.< %.2 a + 7 M.[.J.Y.G.Y.z.z.d.@ 9 j.j.f.O & j.z.z.H.J.OXOXJ..Xd.  . ` < / q./ q.f :  .> ( &.l ] < z r.",
"' 2.( ,.{ ' -.< l 2  .8._ ] %./ r.g o 9 M.oX~.~.^.~.Y.z.z.z.z.z.z.z.x.c.F.J.OXOXOXOXoXd.  . : l > 8.x ( i.' ' #.' 6.> : 1 2 e./ ",
"l / 2 +.l ' z / ( > &.( 2 z l f :.l g o & M.OXOXXX~.~.~.~.~.~.~.!.~.^.XX^.XX^.OXOX.Xd.  X ( / z u.> : z ' < | z ' l / / , p./ : ",
"0./ / 2 / $.: / 3 O.( O._ r.z ' f f | - o & j.M.oXY.~.~.~.~.~.~.~.~.!.^.XX^.XXU.g.d.  X ) ^ 1 / +.2 7./ / k z z _ 2 ` 1 ' ' / O.",
" .: $.8.@.{ 8.k ] / / > u.] z k ,.( %.:.a o o & j.c.!.!.!.!.!.~.~.Y.!.!.!..Xf.d.. . X ! y.' f q.2 l :.,.> 0.7.e./ r.l /  .l : 8.",
"z _ 3 :.x ' / -.l / l l -.z z 1 r.z z '  .] u o o & j.h.j.c.!.!.U.j.h.j.j.d.. . . < &.' z  .> :.l ) ' z ] k ' _ ' / @.:  .x z X.",
"r.: ' ' ' 8./ ' ' / / 8.> y.3 _ :.! -.f &.^ ' / ;.o o o % j.j.j.j.d.. . . . X +.' z  .z ' 2 6.1 /  .@.@.1 ' ^ ] <.( ^ 4.^ / :./ ",
"@.' ] ] / -.[ / +.4.l ..' @.] Q ] f r.! ' ( :.f 4.' ` } .     .     X +.3 4.] / p.@.' f 8.; >.! ] l +. .( q.+./ ' ,.f :.:./ ( ' ",
": :./ 8./ / 9.z / X.' ^ ' : w./ y.f ' 9.l f >./ 2 ( ! w.' r., ] +.f f >./ 2 / ( @.O.-.2 ] ] ( f +./ Q l ] ] :.' f -.( ' ~ ] ( / ",
"] ' l o.' / X.f r.> ( l ^ ~ ' f +.' Q +.> r.^ / ^ ..' ( ( +.' l ..2 -.' l f @.| z ' ] ' l '  .( ] 1 : :.] l ..] ' z ( ,.> ' 3 : ",
":., / ~ 6.> { +.z ' z < >.:.f ^ ' 9.' k 8./ / ^ 2 8.` ~ 1 ' ..+.l >.( z z 3 ,./ ( 2 [ ^ 0./ ] ' k f < :.2 ( f -.> <.( z ] 3 : Q ",
"y.> ] / >.( ; l ( / 8.: ] r./ ! z >.r.: f z / 8.z +.7.] : / [ u.f z 1 ' @./ :.] -.> ' ! &./ / 1 ' / ' 0.2 @.f +.1 z z ( x +.> ' ",
"/ &./ 1 z ] z ( / 0.3 2 q.( p._ ! k :.( > f 1.l f r. .p.^ ' z :.' < 1 %.z / @.| &.4 ' z / | f ^ ) Q ] ] { { 1 / ! z ] ( ,.x 1 :.",
": 8.> 1 | 1 8.l l / z z :.: ,.> / ' l u.z l z ( ( +.3 %.3 ] / z u.z l l / @.' | ] 4 &.~ / 0.l z < ( y.! ,.Q 1 -.> +.' f / > ^ r.",
" .$./ @./ ' +.> f 1 8.,.z @._ x w.' ] ' f z f u.' / e./ l q.] +.' f ^ f p.z ( i.( l %.' 4.Q : l 2 r.3 ' 1./ ' c ' 4.> ; < / 8.k ",
"l _ 2 +.z ' 4 / / f | ' 3 l ^ ^ :.l ' z / / +.z ( x ' 2 ( @.k / / / / 8.> ^ z ' > ' ] z l / / / r.1 > x ' > ] / / 3 ( ( 2 q./ ; ",
"q.Q _ 2 ' 2.1 ( 3 ( / _ O.r.2 _ f / %.1 ^ / ] ( | ^ ` 2 / z 1 { f 3 ' ] / @.2 l x l / z x / < ' ( ^ e.] f c 1 / ,.l _ < / _ ^ 0.",
"' 2 _ u.' _ >.3 ] / ( 1 u.( / 3 ,.f {  .3 :.> / z y./ ..< <.f 1.] z y.: / / :./ :./ r.( r./ / r.4 l ..+.f ,.r.r./ r.z / :.z 1 ,.",
"/ z / +.3 / ^ q.^ / 2 ] ] +.3 2 7.l l / @.| / / ' ' 0.3 > <.z l | ( :.^ ,.] ^ 0.z : $./ 3 @.> -.z <.' l O.z / x / l q.: ' l O.] ",
"r.; / ( ( y.( / | +./ ,.> y.l _ :.^ ,.Q ..x ] ( u.: ,./ ^ :.1 ] > @.: ' ' r.( ( / l +./ ' < 9.2 / ] -.:.< / l  .q.' 4 5. ./ +.( "
};
