/* XPM */
static char *result[] = {
/* columns rows colors chars-per-pixel */
"64 64 196 2 ",
"   c #040405",
".  c #070708",
"X  c #070808",
"o  c #0B0B0C",
"O  c #0E0F10",
"+  c #0F1011",
"@  c #121214",
"#  c #151619",
"$  c #17181A",
"%  c #191A1D",
"&  c #211F1F",
"*  c #1D1E21",
"=  c #1F2023",
"-  c #212226",
";  c #292727",
":  c #242529",
">  c #27282C",
",  c #292A2E",
"<  c #32302E",
"1  c #2B2D32",
"2  c #2E3135",
"3  c #303236",
"4  c #33353A",
"5  c #36393E",
"6  c #3A383A",
"7  c #4B1F21",
"8  c #42383B",
"9  c #5B383B",
"0  c #6E3236",
"q  c #2F6E0E",
"w  c #34740E",
"e  c #377A0E",
"r  c #346C15",
"t  c #347312",
"y  c #387614",
"u  c #3A7B14",
"i  c #3D771B",
"p  c #3F781B",
"a  c #2E4225",
"s  c #364B2B",
"d  c #37532D",
"f  c #3B4A38",
"g  c #3D5333",
"h  c #3F5839",
"j  c #3D6826",
"k  c #417E17",
"l  c #417D1C",
"z  c #425737",
"x  c #44692E",
"c  c #477527",
"v  c #447C24",
"b  c #476538",
"n  c #54793A",
"m  c #373A40",
"M  c #3A3D43",
"N  c #433E43",
"B  c #6B3E42",
"V  c #3E4047",
"C  c #3F4A41",
"Z  c #3F4148",
"A  c #42444B",
"S  c #49474A",
"D  c #45484F",
"F  c #56484A",
"G  c #4A5947",
"H  c #464951",
"J  c #4A4D54",
"K  c #4C4F58",
"L  c #4E5156",
"P  c #4E515A",
"I  c #545253",
"U  c #565551",
"Y  c #51545D",
"T  c #59545A",
"R  c #555A5C",
"E  c #6D494F",
"W  c #64565A",
"Q  c #4D6343",
"!  c #546A48",
"~  c #596958",
"^  c #607E46",
"/  c #535760",
"(  c #565962",
")  c #595D65",
"_  c #5B5F69",
"`  c #795B62",
"'  c #5B6163",
"]  c #5E616B",
"[  c #61646D",
"{  c #6A676A",
"}  c #646A6C",
"|  c #6E6C6E",
" . c #76676C",
".. c #636671",
"X. c #656973",
"o. c #696C75",
"O. c #6A6E79",
"+. c #6A7074",
"@. c #6E727C",
"#. c #71757E",
"$. c #7A777A",
"%. c #BD1415",
"&. c #931E20",
"*. c #9B272B",
"=. c #BA2627",
"-. c #A53134",
";. c #CC3131",
":. c #8C4A50",
">. c #AA4F55",
",. c #905D64",
"<. c #8F6870",
"1. c #B26D74",
"2. c #D54D50",
"3. c #CC6365",
"4. c #E46363",
"5. c #4A8917",
"6. c #45811D",
"7. c #4B851F",
"8. c #4F881F",
"9. c #4A8226",
"0. c #4C8424",
"q. c #4D8A20",
"w. c #518727",
"e. c #528B21",
"r. c #558B2D",
"t. c #579123",
"y. c #5B9323",
"u. c #5E9A27",
"i. c #5C982A",
"p. c #598B32",
"a. c #5D9430",
"s. c #61962A",
"d. c #629A29",
"f. c #659B37",
"g. c #5EA527",
"h. c #66A229",
"j. c #68A128",
"k. c #6DAA2C",
"l. c #66A130",
"z. c #6BA533",
"x. c #6FAB35",
"c. c #6AA039",
"v. c #73AE31",
"b. c #72AB3B",
"n. c #79B33B",
"m. c #658847",
"M. c #727681",
"N. c #767A84",
"B. c #797D86",
"V. c #7A7E89",
"C. c #8E7B84",
"Z. c #A17F89",
"A. c #7D818C",
"S. c #7F8490",
"D. c #81848E",
"F. c #89868D",
"G. c #828691",
"H. c #858A94",
"J. c #898D96",
"K. c #8A8E99",
"L. c #948690",
"P. c #8D919B",
"I. c #91959E",
"U. c #A88B94",
"Y. c #9397A1",
"T. c #969AA3",
"R. c #999CA5",
"E. c #9C9FA8",
"W. c #9DA0A7",
"Q. c #9EA1AA",
"!. c #A2A5AD",
"~. c #A6A8AF",
"^. c #B5A2AC",
"/. c #A4A7B0",
"(. c #A6AAB2",
"). c #AAADB4",
"_. c #ADB1B7",
"`. c #AEB1B9",
"'. c #B2B5BC",
"]. c #B5B8BF",
"[. c #C6949C",
"{. c #B7BAC0",
"}. c #BBBDC3",
"|. c #CFB8C0",
" X c #BEC0C6",
".X c #C2C4CA",
"XX c #C7C9CE",
"oX c #C8CACE",
"OX c #CACCD1",
"+X c #CED0D5",
"@X c #D4D5D9",
"#X c #D9DADE",
"$X c #DEDEE2",
"%X c #DFE0E3",
"&X c #E5E6E9",
"*X c #EDEEF0",
/* pixels */
"e.e.e.t.l e.d.7.e.d.7.e.e.7.e.q.y.l s.e.e.8.j.6.u.e.k k.d.8.6.z.e t.5.j.e d.8.l n.v.l 8.v.t d.8.y.e y.t.7.b.i.6.8.b.u d.y.e.k y.",
"y u.8.l.q.8.j.7.e.t.q.6.7.e k.e.n.k e.d.k 8.d.7.k 8.l k.q.n.e t.y.u 8.d.8.u y.e.d.e.i.e e.y.7.e.y.7.u 5.t.t.t.y.5.t.e.q.8.e.8.k ",
"d.q.6.7.t.l e.6.k.q e.u u d.7.q.6.y.u y.i d.k 8.l q.t.6.q.6.w.u e.l y.l l k t.e.i e.q.e.l 8.f.6.8.p q d.e.i 8.8.6.q.q.b.e e.y q ",
"h.e 6.8.k.y q.t.k e.p w z.s.k k e.k.e.y d.k e.6.y v.q.8.t y.t.j.l u.7.7.6.l z.k e.e e.6.b.l 7.8.y k 6.d.w 5.6.d.e d.q.l e.y q 8.",
"v.e y.p d.q.w k q.7.l.w e.x.8.5.l d.b.w u 6.e.s.l s.b.i.w l t.n.6.u y i.t.6.b.z.x.w q.l d.q.i w z.6.8.b.6.v.i t.y 6.7.8.p z.w e.",
"u f.7.e l t.7.t.q.b.i e n.6.b.7.k l d.e.k 6.a.l 6.n.q.b.l e.u u.t.y k 0.l 8.t.t.r.p q.l 9.t.l e.v k t.6.p.7.w 8.q.k y.v x.p t d.",
"e z.y 7.p.w k.t i 6.9.p u.t b.q w.w.l d.k l 6.e.q.e.u z.l s.q.w.i.6.i i q.t.q.q.y.l b.u l.t.u i q q.z.6.u.6.6.z.e x.k y i w v k.",
"e.v l u.7.e.e.y 6.w z.t.l u.v p k.q.e.e.k 8.6.b.q.v Y [ ..X.O.#.@.o.X.X...) x b.q.6.w.e.i.5.w l e.z.u e.p.7.e.9.y.t.e w e i.d.y ",
"q.q.p w.l 0.y 7.i t.q.q.p q.6.6.t.l 8.u 7.k x.l e.c X..XR.K.E.{.].!.I.J.OXN.x q.t e.e.p l 8.l 6.z.e u i e.q e.e.k i 8.p q.a.6.w ",
"c.u w.k y.z.7.e.i 7.q.6.a.z.u 0.6.t.f.6.9.l v q.9.c P _ _ V.K.).~.P.M.@./ ) x i 9.i e.6.0.7.t q.l 8.b.y.u r.e e.a.0.8.q q.6.l b.",
"e.6.6.n.q.w.u.k t.7.q.i v.q.q.i f.u w.t.l n U ( ) D K ] m D V.K.I.B.J A ] / M ) ' R m.v z.e.l v.p v 8.t.6.e.b.x.e.b.7.6.u.6.l d.",
"e.l e.e.p q.6.b.p 7.w u.q.i.y 9.d.p l b [ B.@.J.Q.o.P O.A D 1 N.A.4 V P @./ ) R.!.#.O.o.b y.6.y.6.x.8.9.e.e.e.v 8.u x.y q.p l.e.",
"v.e l e.8.n.8.6.e.z.l d.y v.6.6.s.c [ I.).!._ R.+XY.( B.K J D Y Y A M / A.) B.+X.XO.I.).Y.o.^ j l e.i.i.w l 7.e.b.t.u k.l.p e.q.",
"6.t.q.d.l 8.z.6.t.d.q.8.e.i i.G [ P.'.'.#X*XP.#.Y.V.P H.P ..M D Y 5 ..] P.P ] R.B.N.*X#X'.'.E.N.G t e.8.e.f.z.l 7.b.k i.t.t.l q.",
"6.u.8.g.e.8.d.6.t.5.l z C j ~ G.Y.`..X#X&X.XJ.M V 4 A Y.( / _ ..} _ / / /.J 1 A 1 _ }.&X$XoX'.!.H._ j z z c t.t.6.y.8.8.5.q.q.u ",
"h.7.7.l t.k e.e.d.r G H.A.A M.Q.!..X#X`.N.P m * @ # 5 Y m N Y ..X./ A M P M # @ @ 1 H M.(.@X.X'.!.K.A [ I.~ j t.k 8.8.k.p q.w w ",
"d.e 7.8.j.6.y 8.c } oX+XA.[ A I..X!.M.L 2 * # = : * $ # # $ $ @ @ % % $ @ $ * - > * $ 1 A O.R.{.!.Y _ N.OX#XA.r.e w.l l e.y t e.",
"z.k u.u i.6.y 6.| oX`.I.R D...H ] P 2 % @ - > = $ % M [ T.!.!.[ L Q./.I.K 2 % # $ - > @ $ 1 J ) P ) G.) K.(.XX$.j 7.q.q.l z.y e.",
"e b.v e 7.t.n +.!.!.}.).Y ..G.J o + + % = * * > Y G.I.!.`.`.D...[ V.`.`.Q.K.S./ 1 * * - * O $ O M D...K !.}.(.Y.A.c x.u j.i w f.",
"u j.i e.a.e | }.N.#.#.[ [ ] @.o.@ O % # # - J M.K.Y.!.'.@X@XV.D.V.V..X$X{.).R.K.V...M $ @ * + . ) N.....} ..@.V.'.#.i w v w e.d.",
"8.v u t.p t.g A ..) Y K A N.X.@ + + O M M.H.T.!./.I.H.V.M.N.R.H.A.!.G.#.B.H.K.!./.E.K.V.H @ + # @ Y C.P P H _ [ P f w e w z.e.t ",
"e.8.l q.8.9.' L M O.M.../ } * @ + * / H.I.Q.(.Y.X.Y #.D.#.V.{.E.G..XK.X.G.N.) ..K.Q.!.Y.H...> + @ @ [ _ ..M.@.H A X.n p e.t.6.u ",
"l.y r.q.z.n W.Q.I.Y K D.M % @ o = ..K.P.P.V.V.N.K 4 - > O.J.}._.R.OXR.O.> = 3 A M.N.N.K.I.K.@.2 O @ @ 2 H...K K.!./.} t 6.p y n.",
"q.q.v b.v X.Q.`.%XJ.1 * + @ o 1 o.H.K.V._ ..] M 1 4 m M N.G.{.).R..XI.O.N m 4 1 , K .._ N.K.H.N.3 + @ + * = N.$X XQ.S.x u.6.l y.",
"t.y 8.t.b P.Q.{.#X@.2 @ # o - N.K.H.H.P X.M $ > m m M ..#.J.'.E.J.}.Y.@.O.Z 5 m 2 % , @.J V.K.G.V.N o + @ - _ OX.XQ.Y.' 9.k b.8.",
"k.p l w.} R.).%XQ.H $ @ o $ @.H.K.V.V 4 - 3 , m A M M.N.B.'.}.!.P..X{.I.@.V.A M H > 4 - 4 6 N.J.K.#.+ o @ @ M Y.&X`.R.P.m.p q.8.",
"u d.k ^ @.K.OX#X@., + @ . 2 @.I./.J 2 m P } [ m ] A.X.G.).!.'.Y.H.{.!./.K.X.V.o.1 Y o.Y V 4 4 N.R.N.m o @ @ - ..OX@XE.A.! t.k 8.",
"6.t.q.! X.P.Q.P.V @ # + o ) G.R.o.] M...P / F.M.D ' Y.Q.O.#.E.J.V.!.D.) E.Q.} m [ D.] J ] #.] ' Y.G._ % O $ @ m S.Q.(.M.L 8.q.e ",
"h.l v I V. XH.H % o + O % O.K.N.) @.P 4 m 1 1 M ) I.E.Y J #.!.P.A.).G.P K T.!.( P 4 1 m 5 A ] [ X.P.M.M O O O $ M S.}.R./ j y t ",
"z.b Q @.A.Y.X.3 * O o X M V.R.Y J 4 M M P Y , D K J @.N.Y V.(.I.B.'.K./ #.@.Y I P 4 ) P M M , M P R.S.) . . O $ 1 ] P.K.M.Q b 0.",
"! !.`..X#XOXP.X.P 4 * @ J G.G./ - > 5 3 ) ..] M.@.A A ..D.P.).H.#.'.E.A.X.K m O.@.@.@._ M m 1 * K @.K.) O @ 1 J ] H.}.@XOX'./.' ",
"d ) @.A.I.D.] K 5 * @ o Z ) / _ + - 5 3 Z N.!.A./ / A Y G.J.Q.N...!.P.G./ Z Y Y @.Y.G.H 3 5 1 % H _ _ A O o % 5 H _ V.P.A.M.] f ",
"7.< #.N.).!.!.N.M.= . * m 1 M M # 1 4 m 4 K / M.O.X.P.{.!.D.( J D Y N.Y.}.Y.N.X.A.[ J 5 3 5 2 = m V 5 2 * + - O...(.!.).N.X.3 e.",
"7.< [ #.H..XJ.V.H *   O M , m m # , 2 m 4 m Y K M.!.M._ [ [ I ) D V H H ) o.R.V.Y Y V 2 6 3 2 - 1 4 2 A @   1 X.X.V.}.H.N.D 1 w ",
"l.2 [ 5 [ V...1 H :   o m > m 2 @ , 3 D / > * M.!.H.Z K { M.{ K J [ H M N 4 o.!.I.A - P J 2 2 = , 5 1 V O   1 o.1 [ V.X.3 Z 2 8.",
"u.2 X.A J X.J M K :   o m : m 2 @ : 2 O.M 4 M.Q.#.O.C.Z. .F ) K I ]  .<.C.W N } R.K.5 4 @.V - = > 5 1 4 O   1 o.m H ..H V D 2 v.",
"6.3 [ P 4 M.A H ( 1   o 2 : m m # m M.m 3 M Y Z 6 E <.<.1.C.E N / ` Z.>.:.B B m m H K 4 3 O.A : , 5 1 1 O   1 ..Y 2 @.V Z R 3 u.",
"c ] X.@.B.H.#.) H Z * O : * m m m ..K , m O.Y M F B -.3.;.-.` N.{ :.*.=.2.&.0 A 5 J @.5 2 m o./ 2 M 1 : O O 4 J ] A.R.T.H.#...b ",
"g B.P._..XXXT.M.J m , @ * : m J M...: 2 m Y.N 1 8 ,.>.4.2.-.U.}.C.:.=.;.2.-.0 < , M K.m 1 : ' @./ 5 4 % O * 4 H o.Y. XXX'.Y.A.L ",
"r G V P _ _ J m * # # . * H m J M m - 2 3 C.2 : N ^.1.;.=.>.U.$.W ` -.%.%.>.` 7 - 3 D.5 A - > A H 3 P > . O $ - 4 H ) ] / Z C x ",
"5.e.a H X.o.A , .     . 1 _ m M K - * / M O., : M W U.[.[.|.L.I F ` <.>.>.:.7 4 - - R J O.- # 2 Z 3 ] M .   . o - V ] o.Y s p w ",
"d.y z A.R.'.G.Y * o . . M ] M m 2 * * M.H M.2 : > F F <.L.C.| U J T B B 9 7 H , * - ) H A.1 = - m 3 ../ .   . + A A.).).H.G e u ",
"b.w z #.).OXJ.K @ o   . K ] M M @ * 3 ] M X.H , & 6 _ R ) { $.L. .$.N.T > 6 A = % 4 [ M ..m - $ m 1 ] _ o   o # Z A.OX}.A.Q w q.",
"s.t.z #.E..XK.J * o o o Y ] M M @ H ( J - _ ( 2 - : ( T $. .U W < S 8 T & A 2 * = Z ] - / Y / 1 1 m .._ o   o $ Z S. X'.A.Q 6.t.",
"e x.g N.K.'.G.A * o o O ) X.J m M H : > # P ( H * = M V.< < & @   . # & O.6 * % 4 Y / $ : 1 A H 4 Z M...O o o $ m N.`.Q.A.h l b.",
"q.c.g X.T.K.o.M * O o @ _ M.Z Z Z 3 * A _ 1 ] ( M % : A S & & 6 ; U ; 6 D - % 5 / ] m ) K * > M Z H M.X.+ o O $ 5 ..K.P.M.h b.7.",
"l 7.g X.K.P.O.H * + + + / ..J M m * 1 N * @ 3 Y R M % - R H S F 8 F S T , > 3 Y / A $ % M M @ - Z H ....+ o O $ M X.G.I.M.! 7.w ",
"z.7.g O.R./.O.H * @ O o Y ] H M # # M m * * # > P Y D 5 A | { I F < f H 3 A Y P 5 $ $ = , D % @ M M ..] O o + * M X.Q.Q.N.z q.y.",
"t.t g o.Y.`.M.H * O o . / ] m m O @ m P ( A 1 * - A _ ] _ Y P 2 , m K ( ] _ J : # , M ( P H # o 2 2 ..] o . o * M X././.M.h q x.",
"l 0.a ] K.}.M.A $ o . . J ] 3 Z @ O . 1 2 4 Z _ _ 2 $ A K.(.V.4 3 O.(.E.H * : ( ..P m 1 m O o O M 1 ] ] X   o # M X././.X.f l t.",
"v.q s [ Y.}.@.Z # . * m ( 3 3 M H 1 * * O @ # = Z P P 4 * A ( m 1 ( P , 1 K ( A , * @ O * * > m Z > M K M , o @ m X.{.{.O.g l.9.",
"s.8.s ( K.{.O.M @ o X * K : 1 1 M K ( O.) * @ 2 M K ] V.( M / M 3 _ M A V.X./ M 4 : # K M._ K A 1 * > K * o . @ m ] Q./...d 6.t.",
"w d.a Y H._...4 O .   $ P = > = : $ > m ) M M m = : * ( M.M ( M m _ N ( O.* * * 2 M 4 _ m > * * : * = Y * o . O , ] R.Q.] d 7.7.",
"e.e.a J V.E./ , O o . # A * = , 4 M ( M - M M 1 m M , : M m _ M 4 ..M 4 1 > M H $ M m , m _ M M > * * Z * o . o - P P.P./ s u w ",
"d.e f Y B.R.P , O o . * Z * > 3 4 2 * - 1 M J Z m = 1 1 K m M A H D M m m 1 * 3 m H , 4 - - 1 m m * * M * . o o = J J.P.) f q 6.",
"v.e R Q.OXOXJ.A = @ o # 4 * 1 Z > - m m 3 * 1 M P Z 1 4 J m ...._ X.m M M > M P H 3 @ 3 m m 2 * M > * m * o + * 4 A..X+X).R r e.",
"q.z 4 Z O.P.( 1 O o $ 3 ( * 1 K = O O + o @ O O @ # 4 _ A M.N.D D M.A.P ( m # @ @ + @ o O O o @ H 1 * H m * o o : L A.S.L 5 d i.",
"d M.X._ K P Z A / A , # * : 4 ] N.V.N._ * % H _ / _ _ / V.V.) V.V.X.#.H.Y [ _ / ] Y : * ) N.V.V.X.m 1 * @ * Z Y H Z J J ) X.M.Q ",
"Q ).{.R.K.Y.T.P.H.O.P > @ 5 M Z A A K M A D M N M m H D.G.Y _ M.N...Y [ I.( m A M M H Z m J H M M Z M * * M M.S.H.R.Y.P.R.`._.] ",
"z S.N.N.V.A...( ( K Z : = A @.V.M.M.V.G.M.V.M.V.A.V.K.#.P Y Z _ X.K Y K [ H.D.V.V.V.V.N.S.N.N.M.V.V.J 1 * m J Y / ..A.B.V.B.A.R ",
"Q J.S.P.{.T.@.( ) J V - = m H Z M P H P M K K P D K ) D / M.] ] _ O.O.X.A ) K A K Y K Z H K J Z Z H m 1 * 2 H _ K M.K.).Y.S.K.L ",
"z S.V.A.E.P.X.J Z 5 1 % * 1 5 3 m M ( M Z D K M A D J M H H ] H A _ J J M K H D M M Y M M Y M 2 m 2 1 : * * m M Z ..H.R.H.V.S.D ",
"f M.M.M.A.O./ Z m 1 = + # > 1 : : 1 3 4 4 3 3 2 3 4 m _ M H J Z A K J M ..M 4 3 1 2 2 2 m 2 1 > : 1 , * O * 1 m M ( X.M.M.M.A.C ",
"b P .._ .._ J 5 1 - +   O = > - : : , 3 4 2 4 3 1 1 4 m 2 3 3 1 1 2 3 2 m m 1 1 2 2 1 m m , > = : : : @   o * > m H ( ] ] ] Y f "
};
