/* XPM */
static char *result[] = {
/* columns rows colors chars-per-pixel */
"64 64 202 2 ",
"   c #040404",
".  c #070806",
"X  c #090B07",
"o  c #070708",
"O  c #070809",
"+  c #0B0B0B",
"@  c #0B1007",
"#  c #0E130A",
"$  c #10160C",
"%  c #131C0D",
"&  c #0E0F10",
"*  c #0F1011",
"=  c #131314",
"-  c #151913",
";  c #161619",
":  c #17181B",
">  c #1B1B1C",
",  c #15230D",
"<  c #19250E",
"1  c #172A0C",
"2  c #1A2A0E",
"3  c #1C320E",
"4  c #1E3B0E",
"5  c #1B2511",
"6  c #1D2C11",
"7  c #1E3211",
"8  c #21370F",
"9  c #202E13",
"0  c #223513",
"q  c #233B12",
"w  c #283E15",
"e  c #2A3C1A",
"r  c #1D1E21",
"t  c #1F2024",
"y  c #232324",
"u  c #24262A",
"i  c #27292D",
"p  c #2B2B2C",
"a  c #2F3F29",
"s  c #303F26",
"d  c #2B2D32",
"f  c #2E3034",
"g  c #333434",
"h  c #33353A",
"j  c #36383E",
"k  c #3B3B3B",
"l  c #23490D",
"z  c #26500C",
"x  c #264313",
"c  c #2A4414",
"v  c #2A4A15",
"b  c #284D14",
"n  c #2D421A",
"m  c #32491B",
"M  c #2C5314",
"N  c #2F5118",
"B  c #325316",
"V  c #355917",
"C  c #35521B",
"Z  c #365C19",
"A  c #3A5B1B",
"S  c #2F6E0E",
"D  c #34740E",
"F  c #377A0E",
"G  c #376918",
"H  c #3B6D1D",
"J  c #347312",
"K  c #387614",
"L  c #3A7B14",
"P  c #3C761B",
"I  c #3F781B",
"U  c #304129",
"Y  c #395226",
"T  c #3E5A20",
"R  c #3B4C37",
"E  c #3D5535",
"W  c #3F6B25",
"Q  c #3F7221",
"!  c #42661D",
"~  c #417E17",
"^  c #417D1C",
"/  c #405C22",
"(  c #43563B",
")  c #416122",
"_  c #46682B",
"`  c #427323",
"'  c #457D24",
"]  c #4A7C24",
"[  c #4A752A",
"{  c #4C7A2C",
"}  c #446933",
"|  c #506D38",
" . c #4C7634",
".. c #547A37",
"X. c #373A41",
"o. c #3B3D43",
"O. c #3D4046",
"+. c #3F4148",
"@. c #404141",
"#. c #42454C",
"$. c #45484F",
"%. c #495D44",
"&. c #485748",
"*. c #464951",
"=. c #4A4D54",
"-. c #4D5354",
";. c #4E5A51",
":. c #4E5159",
">. c #51555D",
",. c #525A58",
"<. c #4D6348",
"1. c #54674B",
"2. c #5A734A",
"3. c #576857",
"4. c #535760",
"5. c #565A62",
"6. c #595D65",
"7. c #5B5F69",
"8. c #5D6267",
"9. c #5E626B",
"0. c #61646D",
"q. c #656E6B",
"w. c #68746B",
"e. c #636671",
"r. c #656A73",
"t. c #686C77",
"y. c #6A6E79",
"u. c #6E727C",
"i. c #71757F",
"p. c #73797D",
"a. c #4A8917",
"s. c #45821D",
"d. c #4B851F",
"f. c #4F881F",
"g. c #458123",
"h. c #4B8425",
"j. c #4D8A20",
"k. c #508627",
"l. c #528B21",
"z. c #578A2C",
"x. c #579123",
"c. c #5B9323",
"v. c #5E9A27",
"b. c #5C992A",
"n. c #5C8F31",
"m. c #5A8239",
"M. c #5D9430",
"N. c #629A29",
"B. c #669A38",
"V. c #5EA527",
"C. c #66A229",
"Z. c #68A128",
"A. c #6DAA2C",
"S. c #66A130",
"D. c #6BA533",
"F. c #6FAB35",
"G. c #6AA039",
"H. c #73AE31",
"J. c #72AB3B",
"K. c #79B33B",
"L. c #6C8A58",
"P. c #737681",
"I. c #757984",
"U. c #797C86",
"Y. c #7A7E89",
"T. c #7A8282",
"R. c #7D818C",
"E. c #81858E",
"W. c #82898C",
"Q. c #828691",
"!. c #868A94",
"~. c #898D96",
"^. c #8A8E99",
"/. c #8D919C",
"(. c #91959E",
"). c #95989E",
"_. c #9296A0",
"`. c #9599A2",
"'. c #9A9DA6",
"]. c #9B9FA8",
"[. c #9EA1AA",
"{. c #A3A6AE",
"}. c #A6A9AF",
"|. c #A4A7B0",
" X c #A5A9B1",
".X c #AAADB5",
"XX c #AEB0B7",
"oX c #AEB1B9",
"OX c #B2B5BC",
"+X c #B6B8BF",
"@X c #B7B9C0",
"#X c #B9BCC2",
"$X c #BDC0C6",
"%X c #C3C5CA",
"&X c #C7CACF",
"*X c #CBCCD2",
"=X c #CED1D5",
"-X c #D4D5DA",
";X c #DBDCDF",
":X c #DFE0E4",
">X c #E4E5E8",
",X c #EDEEF0",
/* pixels */
"l.l.l.x.^ l.N.d.x.N.d.x.f.d.x.l.l.~ N.f.l.f.Z.~ N.l.^ A.N.j.s.D.F x.s.Z.F N.l.^ K.F.s.d.H.D N.f.c.D c.c.d.F.v.^ j.J.~ N.x.l.~ l.",
"K v.f.S.j.l.N.d.f.x.d.d.d.D A.d.K.a.l.N.~ f.N.d.~ l.~ A.j.K.F x.x.I l.N.l.L x.l.v.x.v.D x.x.d.f.c.f.F f.x.x.c.x.a.x.f.j.l.l.f.s.",
"N.j.s.d.l.^ c.^ A.S l.L L N.d.f.s.x.L x.~ N.~ l.^ j.c.' j.s.l.L l.s.l.^ ^ ~ x.x.I l.j.j.s.j.B.s.f.K S N.f.I f.l.s.j.f.J.D l.F D ",
"C.F s.f.A.K j.x.~ l.^ S C.N.~ ~ f.A.x.K N.^ f.^ K H.j.f.J x.x.S.~ v.j.d.g.~ Z.~ l.D x.s.F.^ f.f.K s.s.N.D f.s.N.D D.f.I l.K S d.",
"F.F c.I N.j.D ~ j.j.N.D c.F.j.s.^ N.J.D L s.z.N.~ N.J.v.D ^ x.K.s.L K b.x.s.J.D.F.J f.s.S.f.I J D.s.f.H.s.J.P l.K s.d.f.P F.S l.",
"~ B.j.D ^ x.d.x.j.J.^ D K.s.J.d.s.^ N.f.L s.M.~ ~ K.f.C.s.l.L b.x.K ~ h.^ j.x.z.z.I f.I s.x.I l.I s.x.s.n.j.J j.f.~ c.s.H.I J N.",
"D C.J j.n.D D.K P ' s.^ v.S J.J k.k.^ N.~ ^ g.l.h.x.W L.[ m.....m. .} } ..k.f.f.c.^ F.s.S.x.L P S j.D.s.v.s.s.F.F F.s.K ^ J g.A.",
"x.g.^ v.d.l.l.D s.D F.z.^ v.' ~ A.j.l.x.~ d.s.J.j.g.w.`./.(.|.oXXX.X[.(.`.^.{ F.j.s.h.l.v.s.D ~ l.D.K l.n.s.l.g.x.x.D D K x.N.K ",
"j.j.^ l.^ k.K d.I x.j.l.P j.g.s.x.^ d.K ^ ^ D.~ c.! >.).'.R.E.'.).`.!.R.|.P.W l.D j.l.I ~ j.^ ' D.F K P x.S l.f.~ ~ l.^ j.N.' D ",
"G.L k.L c.D.d.l.I d.j.I b.D.L h.a.x.B.d.d.^ [ ] [ | =.0.@.U.U.#X@XXXt.I.#.r.} H [ Q l.s.k.d.J j.^ d.J.v.L z.D z.b.h.j.S d.^ ^ J.",
"l.s.s.K.j.k.N.^ l.d.f.P F.f.j.P B.K k.c.` <.y.E.).0.*.t.k *.:.U.].I.+.*.7.9.o.Q.^.R.-.( D.l.^ H.^ ' f.x.s.x.J.F.l.F.h.s.v.s.^ N.",
"l.^ f.z.I j.~ J.s.d.D v.f.S.P g.Z.^ ! &.W.(.5.P.XX~.*.P.#.>.p >.u.o.j >.P.r.9.{.[.p.y.(.q...~ M.s.H.j.s.l.f.l.' j.I F.J j.I S.l.",
"H.D ^ x.j.K.f.s.l.D.s.v.F H.L s.| ;.T.(.@X*XU.P.#XXX#.U.=.6.$.=.u.o.:.9.~.t.u.&X+Xp. X&X|.~.w.} Q j.v.N.K s.^ l.J.x.K A.S.I x.d.",
"s.x.j.v.~ f.D.s.x.v.f.f.] P n.;.P._.+X#X-X,XOX9.p.P.g ~.6.>.@.k *.o.:.5.[.u.=.~.5.r.>X>X%XoXXX_.r.E l.h.] S.A.^ d.J.~ N.z.x.~ f.",
"s.N.j.V.l.f.N.^ x.a.) &.y.R 0.(.]..X=X>X#X_.r.h r > u Q.:.:.0.p.R.r.5.:.I.r.- y > o.P.XX&X:X#X X'.R.&.-.q.R x.x.s.c.j.j.a.j.f.L ",
"C.d.d.^ x.~ l.l.b.H w.}.+X6.*.`.OX%X%X!.7.o.r : > y p p y p g @.o.h i i u f t r : > u *.u.{.*X%X}.Q.#.p.-X{.E x.~ f.j.A.L j.D D ",
"N.D d.d.D.a.K d.` q.=X&Xy.Y.5.5.OX(.0.o.y = r d 5 > = > > > > > > > > > y y > > u u > ; g :.i.].{.#.r.Y.!.*X}.1.F l.I s.f.J J l.",
"D.~ v.L v.s.K ] P.@XOX}.t.i.^.5.d j u & : u y r p g k @.@.@.@.k @.@.@.@.@.@.k g u > p y & ; g k g t.^.7.E.'.}..X<.l.f.d.~ F.J l.",
"F J.^ D d.l.{ p._.~.'.'.I.e.i.Q.: o & t r : i h k k k k k k k k k @.@.@.k k k k k g p ; y ; + + 4./.y.e.(.{.}.~.(.3.F.~ C.I J S.",
"L A.P l.n.I ..r.9.=.O.o.0.6.t.>.& = : + y g g g g g g g k k k k k k g k k k k k g k g g > = > + h r.7.y.6.j =.>.r.6.D D ' D x.N.",
"j.' L z.~ x._ o.#.y.9.7.=.U.t.& ; & $ p d g g g g g g g g g g g g g k g g g g g g g g g g > $ = & d !.6.0.5.y.7.j #.J D S D.l.J ",
"z.j.~ j.l.' q.~.e.#.y.!.0.#.: = + ; p p p p p p p g g g g g g g g g g g g g g g g g g g g p p + & = u =.!.!.:.=.P./.3.P l.x.s.L ",
"S.K z.j.C.m./..X&X].X.O.O.= = + & y p y y p p p p p p p p g p g p g g p g g p g g p p p p p p y + = = : 0.o.0.%X#X}.p.G s.I K K.",
"f.f.' J.j.;._.{.-XOXo.r & = & + y 9 y y y y p y p p p p p p p p p p g p p p p p p p p p p y p p t O & ; + r y.:X@X[./.<.b.s.^ c.",
"x.K j.x. .Q.'.oX:XU.g : = + + > r > y > y y y y y y y p p p p p p p p p y p p y p p y y p y > y y y O & = ; :.OX-X{._.W.` L J.f.",
"A.L ^ x.,.(.OX>X@X>.> & & o ; > > r > y > y y y y y y y y y y y y y p y y p p y y y y y y y y y r r : o ; = f Y.;X=X[.~.2.I l.f.",
"L N.~ ..0.I.'.%XI.d = = + + = = ; > > > > > > > > y 5 y y y y y y y y y y y > y y y > y 5 > > y > > :   + ; = *.[.#X!.I.,.x.s.f.",
"s.x.l...5.!.OXt.o.= = = + y = = = ; = = = > > > > > > > > > > > > y > > > > y > > y > > > > > > ; ; ; u & = & u >./.=X~.-.f.f.D ",
"C.^ d.%.E.`.(.:.u O + + + i & & & = = = = = > > > > > > > > > > > > > > > > > > > > > > - > - ; - ; ; p o + O = h r. X'.t.` F D ",
"D.q.).'..XXX~.>.X.d : O ; u + & & & = = = = = = = = = = = > > = = > - > > - > = ; ; = = = - = ; = = = p o o u h +.e.[.XX.X).!...",
"n.e.(.'.#XOX~.0.>.d r + ; i o + X + + + & & & & $ = = = = = = = = = = = = = = = = = = = = = & & & & & g O & y #.6.u.'.OX.X_.R.1.",
"F R #.#.5.5.>.*.X.t o + r d o o X X + + + + & + + & & & = & = = = = = & = = = & & = + = + + & + + + + h = & = f o.=.6.9.:.#.i ..",
"h._ 7.I..X#X#X Xt.o.O & r t       X X X o X + + + + + + + & & & & & & + & + & + + & + + + + + X + o + p = = d P.P.#X#X#X^.y.d l.",
"d.N 0.$.r.Q.Q.e.o.X.O   ; $.          o o o o o + X + + + + X + + & + + + + + + + + + + + X o . o o + =.O   d e.#.I.~.I.:.#.d J ",
"B.V e.#.o.9.5.X.+.X.O   ; X.            o .     o o o o o o   O + + + + X X + + O O     o o o o     o @.&   f y.h o.e.:.h *.d f.",
"v.v 0.7.o.I.y.X.7.X.O   r f                         o     o     + + + X . . X X O                   o o.O   f y.4.X.Q.4.*.5.f H.",
"^ Y d h o.X.o.+.=.=.&   & u                     .                       . .                         o p o   y i d j j j j f h z.",
"z.I.`.OX*X:X#X^.e.=.X.r d h                                                                         o O.: r +.5.P.[.-X:X%X[./.3.",
"z.=.9.P.(.`.Y.7.#.d y ; & r                                                                         o u   = u h :.u.^.).!.r.8.%.",
"D M.e u f X.d r & o O   ; u                                                                         o f o   o o ; t f h f t Z f.",
"a.x.` 6.(.|.R.5.u O O   = u                                                                         o i o   O & O.t.`. X!.+.a.D ",
"N.L ] 6._.OX].r.u + O o = r                                                                           r o   & : +.R.@X@XR.E F L ",
"H.D ] 7.`.%X|.9.i & O o ; u                                                                         o i o   + = +.Y.&X$XQ.E F j.",
"N.c.] 5.^.|.[.6.i & + O ; u                                                                         o i O O & : o.P.+X|.Y.E I x.",
"K F.P 4.^._.Q.:.u & & O = y                                                                           u O & & : o.e.`._.R.R I J.",
"f.G.' :.~._.I.4.i & & & & r                                                                         o t o & & : o.0.Q.(.Y.R J.j.",
"I d.H :.!._.Y.6.d & & & & r                                                                         o r o & = r o.r.^._.P.( g.D ",
"F.d.[ >.^.{.!.5.i & & o + r                                                                           :   + & : o.r.{.{.R.R h.c.",
"z.J { $.Q..X!.4.i & o o o ;                                                                           ;     + : o.e.|.oXP.U J D.",
"~ d.G $.Q.oX~.:.u + = r X.o.  o X X X X   X X X X o X     X X     X X X X   X X X   X X   X X X   o + =.d r O = X.r..XoXu.a I x.",
"H.S ] #.R.oX!.=.t o & ; d p o X X X + O X X X X $ X X X X # X X X X X X X X X @ X + X X X X + X @ X + o.r ; O & h e.{.oXr.a S.j.",
"v.f.] o.I. XY.*.r o   o u >.X $ # @ $ $ # # $ @ # @ # $ # # + $ @ # @ # # $ # # $ # # @ $ @ # # # + = r.; o + & d 7.'. Xe.a j.x.",
"D N.^ o.y.'.y.o.: o o o u #.$ $ % % $ % # $ % % # % $ % $ % $ $ % $ # % $ $ $ $ $ % % # $ $ $ $ $ $ * :.: o O & u :.~.[.5.s j.d.",
"d.x.H g r./.e.j = o o + i X.$ % % % % % $ 5 % % % % % % % % % $ % % , % % % , % % % % % % % , % % % * =.: + & o t +.!./.>.a ~ S ",
"N.F E E. X@X^.:.y & & o t g $ , , 5 , % 5 , , % % 6 , , , < < < , 5 , , % % < , , % < , 5 , , , , , # +.= O = r f r.|.@X[.5.V ~ ",
"H.K R #.Y.{.Q.#.r + & & i h $ , < 9 9 , , < 2 9 , 2 9 5 , < 9 9 , , , < 6 < 9 2 2 , < < 6 < 5 , < , & o.r & = & i 9.[.[.r.h G l.",
"h.,.5.X.+.4.*.d u t r : u d - < 2 2 9 2 < < 9 < 5 0 6 0 2 2 < 9 2 < 1 9 < 6 9 2 6 , 6 6 2 6 2 < 6 , * X.: : t t u j :.5.+.+.7.| ",
"G !.{.|._.^._._.~.Q.=.h r = 0 1 2 2 2 w 2 2 2 9 6 9 6 0 2 0 2 6 e 2 2 2 2 0 2 0 7 6 0 2 6 0 2 2 1 6 7 ; i h y.^.R.`././.[.|.[.L.",
"h.Y./.!.!.R.Y.y.7.>.#.f - : 0 6 n 0 q 0 3 0 3 n 0 0 w 0 7 e 0 0 8 2 0 3 n 7 0 n 7 6 0 0 w 3 2 3 2 n 1 & r f =.6.r.I.~.!.R.~.^.8.",
"Q U.R.Y.].].P.7.>.4.+.f - - 7 0 w 3 q 7 8 q w 7 0 4 0 8 q w 4 8 0 q 0 n 3 8 0 q 3 q w 4 7 q q 0 m 3 1 & t f *.9.:.e.R.`./.R.R.3.",
"B.y.Q.Y.'.[.R.5.*.o.d r & - 4 x 8 x v 4 q q c c w q c 4 q q 8 w q 8 c c q v 8 q q q x q q x 4 w x q m & ; t h +.+.r.^.'.^.I.R.3.",
"] e.I.P.Y.Y.e.:.+.X.u ; + * x q C x n m x B 4 v x / v v 4 C l Y v q A 4 c c C x C x T c T c c T 4 x n & * : f o.+.4.P.R.I.P.R.1.",
"` >.e.t.y.e.5.+.h i r &   - x b ! x b v A B v v B B / x l / v c B B A v A C b ) v x C v x Z l C b T n + O & i f X.=.0.e.y.y.9.%.",
"B.o.*.=.=.=.+.d r : & & & 5 M V ! B ! N Z N A Z [ z ) B N ! z A z G z A V [ B V B v G V A l ` z Z A Z * + & = r t X.+.*.*.=.+.R "
};
