/* XPM */
static char *result[] = {
/* columns rows colors chars-per-pixel */
"64 64 230 2 ",
"   c #070806",
".  c #0C120C",
"X  c #0F1809",
"o  c #15160C",
"O  c #131F0A",
"+  c #0F1410",
"@  c #161916",
"#  c #23180E",
"$  c #271914",
"%  c #2D1D1E",
"&  c #371D19",
"*  c #15220B",
"=  c #1A250E",
"-  c #1B2616",
";  c #1D3712",
":  c #29261A",
">  c #3C2315",
",  c #3E281A",
"<  c #263915",
"1  c #283A10",
"2  c #0E1B22",
"3  c #161C24",
"4  c #171E27",
"5  c #221F20",
"6  c #1A2526",
"7  c #192432",
"8  c #182935",
"9  c #1F2B3B",
"0  c #1B333E",
"q  c #222222",
"w  c #2B2927",
"e  c #352A26",
"r  c #2A352B",
"t  c #37312B",
"y  c #242C37",
"u  c #27343E",
"i  c #333333",
"p  c #3C3A3A",
"a  c #452919",
"s  c #56311E",
"d  c #472D24",
"f  c #483429",
"g  c #5B3725",
"h  c #4A3932",
"j  c #622E26",
"k  c #633623",
"l  c #643923",
"z  c #6C3C25",
"x  c #76372A",
"c  c #22460E",
"v  c #294414",
"b  c #294A15",
"n  c #374A1A",
"m  c #2C5516",
"M  c #325416",
"N  c #335919",
"B  c #3B631B",
"V  c #346A18",
"C  c #3C6C1E",
"Z  c #357216",
"A  c #397416",
"S  c #3A7816",
"D  c #367319",
"F  c #3B751B",
"G  c #3C791A",
"H  c #374E25",
"J  c #3D6521",
"K  c #3E7621",
"L  c #3F7A20",
"P  c #405B1F",
"I  c #42661D",
"U  c #42741E",
"Y  c #437D1D",
"T  c #445E26",
"R  c #494337",
"E  c #584639",
"W  c #4F583B",
"Q  c #724027",
"!  c #754229",
"~  c #7C452B",
"^  c #6E4638",
"/  c #446824",
"(  c #417622",
")  c #437C22",
"_  c #4A7D22",
"`  c #457B28",
"'  c #497E2A",
"]  c #507D22",
"[  c #1F3949",
"{  c #253346",
"}  c #2C3540",
"|  c #203E52",
" . c #3C4245",
".. c #244257",
"X. c #2F4651",
"o. c #25455C",
"O. c #2C4E67",
"+. c #375D78",
"@. c #434546",
"#. c #43494C",
"$. c #4C4D4D",
"%. c #574B45",
"&. c #525352",
"*. c #5C5A59",
"=. c #685749",
"-. c #74594B",
";. c #645A55",
":. c #546746",
">. c #626B5E",
",. c #796456",
"<. c #736258",
"1. c #56636B",
"2. c #656768",
"3. c #71746E",
"4. c #676E72",
"5. c #6C7173",
"6. c #7A7A7A",
"7. c #873D2E",
"8. c #924233",
"9. c #A84C3B",
"0. c #B6523F",
"q. c #BE5642",
"w. c #846C5D",
"e. c #8D6C5B",
"r. c #886D5C",
"t. c #8B7465",
"y. c #957866",
"u. c #C65945",
"i. c #D15E48",
"p. c #D56049",
"a. c #DF644D",
"s. c #46811E",
"d. c #49811F",
"f. c #4B881D",
"g. c #468123",
"h. c #4C8424",
"j. c #4E8925",
"k. c #478028",
"l. c #4E842B",
"z. c #4E8928",
"x. c #508724",
"c. c #538A25",
"v. c #588E27",
"b. c #51862B",
"n. c #548C29",
"m. c #588F29",
"M. c #4F9426",
"N. c #549627",
"B. c #599127",
"V. c #57902C",
"C. c #5C942A",
"Z. c #5E992A",
"A. c #558831",
"S. c #5B8E34",
"D. c #5D9432",
"F. c #60972E",
"G. c #639B2C",
"H. c #689F2C",
"J. c #649C32",
"K. c #679C35",
"L. c #659A3A",
"P. c #5EA42B",
"I. c #66A12D",
"U. c #69A32E",
"Y. c #6DA82F",
"T. c #66A133",
"R. c #6BA434",
"E. c #6EA932",
"W. c #6DA53A",
"Q. c #6FA939",
"!. c #72AC34",
"~. c #71A73D",
"^. c #73AB3B",
"/. c #71B034",
"(. c #77B03D",
"). c #79B23E",
"_. c #73AA41",
"`. c #86827F",
"'. c #9C8373",
"]. c #A3816E",
"[. c #A78976",
"{. c #AF907C",
"}. c #B3937E",
"|. c #326182",
" X c #36698D",
".X c #396F94",
"XX c #3C7299",
"oX c #3F79A2",
"OX c #427CA6",
"+X c #7C8287",
"@X c #4F84AB",
"#X c #6890AE",
"$X c #888987",
"%X c #968D88",
"&X c #8F928B",
"*X c #959494",
"=X c #9A9998",
"-X c #B89882",
";X c #A29D9C",
":X c #979CA0",
">X c #91A2AF",
",X c #A3A3A3",
"<X c #ABABAB",
"1X c #B5B6B7",
"2X c #D88D80",
"3X c #C09D87",
"4X c #C19F88",
"5X c #E29A85",
"6X c #CAA68F",
"7X c #D4AD94",
"8X c #DAB39A",
"9X c #E0B69C",
"0X c #E0B89D",
"qX c #F6B79A",
"wX c #E7BDA2",
"eX c #ECC1A5",
"rX c #EFC4A8",
"tX c #F1C5A9",
"yX c #F7CAAD",
"uX c #FBCEB0",
"iX c #FFD1B3",
"px c #A2BBCF",
"aX c #AEC5D7",
"sX c #CBCCCB",
"dX c #C1D2E0",
"fX c #EAE8E8",
"gX c #E8EEF3",
"hX c #EFF3F6",
"jX c #F3F3F4",
"kX c #FEFEFE",
/* pixels */
"x.x.M.m.g.v.Z.h.m.G.g.n.x.h.B.j.c._ G.h.c.x.U.) F.x.Y T.U.B v &X*X&XH N K G.n.) ).W.) h.^.A H.x.B.F B.n.h.^.G.) x.^.Y H.B.c.s.v.",
"G Z.x.T.x.x.H.h.x.c.h.h.j.S E.x.).g.x.U.U c.G.h.s.n.d.Y.( 3.<XjXkXhX<X*XH G c.Y Z.n.G.S v.n.g.j.B.x.Y j.v.V.N.v.g.B.x.x.j.x.h.g.",
"G.x._ h.c.Y v.d.R.A x.G Y F.h.h.h.c.G c.Y H.) h.L h.B.J >.jXkXhXdX@X#XhX,Xm / 2 m z.x.j.s.h.T.h.h.L Z Z.x.( j.c.g.h.x.^.D j.S Z ",
"H.S g.j.E.F h.m.) x.) Z T.Z.s.Y x.E.m.G Z.) h.N ; n c $XhXkXkXpxOXOX@XhXkX=X8 oXO.; v.g.Q._ h.h.G ) G H.A h.s.F.A K.x.) x.F Z h.",
"Q.S C.) G.h.A Y h.h.K.Z v.Q.j.f.) F.!.S S s.C 0 8 8 2 2.6.+X+X>X@XOXaXkXkXkX:X+.XX6 z.f.J.h.) D R.h.x.).s.R.G B.F g.h.h.) W.F x.",
"Y L.h.S ) v.g.V.h.W.) S _.g._.h.g.) H.h.s.G 6 | o.o.o.[ 8 |.|.| #XpxgXkXkXkXkX,X2 m z.g.g.B.Y j.` L v.s.D.k.Z h.h.Y C.g.R.( A J.",
"A K.S g.S.D R.F L k.g.) G.Z ~.Z l.b.) J.G v 0 o.o.o.| e > , , o...4.<XkXkXkXkXkX} } / h.R.v.G L Z h.Q.g.Z.h._ W.S Q.Y G _ D g.Q.",
"n.l.) C.h.x.B.A ) S W.v.) D.) ) U.j.n.n.) . ..o.O.| w Q ~ ~ ~ f X.o.O.:XkXkXkXkX@. XX.Y F.) A ) h.~.G x.S.l.x.' c.F.Z Z D C.Z.F ",
"h.l.G n.h.k.F h.) B.l.j.L j.g.h.v.Y x.G _ . ..o.o.[ , ~ ~ ~ ~ ~ k h  X+.,XhXkXkX#..X|.N _ h.) g.R.A F ( x.Z x.x.) Y j._ h.D.d.A ",
"W.G n.s.C.W.h.j.K h.h.) D.R.G l.g.v.L.h.g.. o.o...: ! ! ~ ! ~ ~ g r.;.#.O. .sXkX@..X|.N b.h.Z l.g.h.^.C.G A.G v.F.h.h.V g.k.g._.",
"x.h.k._.h.l.Z._ n.h.h.L !.h.h.K L.G l.v.K + o.o.u ,.k 8.l > ~ ~ g t.uXwX2.XX+.px ..X|.B R.c._ !.L ) x.v.h.n.^.Q.n.R.h.h.Z.g.L Z.",
"h.g.h.B.( h.Y ^.) h.F Z.h.J.L g.H.( ) ) T.+ | o.3 }.a z -.r.z ~ k y.iXiXwX ..X1.6 .X+.N ( C.Y C.g.W.c.) V.x.x.' h.K Q.Y z.L R.x.",
"!.S ) v.x.).x.g.V.R._ G.S !.Y ) F.d.J.d.c.V 6 o.: wX[.f 0X-Xk z ,.tXiXiXiX%..XoX7 |.- g.v.Z Y.Y _ x.Z.Z.S _ g.c.^.v.G Y.T.( v.h.",
"g.v.h.G.) h.R.h.v.Z.h.j.c.) G.j.v._ m.C.c.x./ 8 4 eXiX[.y.4X-X'.yXuX].y.6XiXt.o.2 +.X d.R.Y F.c.C.D B.h.h.T.R.) g.^.) F.v.v.G n.",
"s.Z.j.P.x.c.H.g.v.f.) x.g.S Y.x./.f.x.v.b 1 1 - @ wX7X*X=X%X8XiXuX6X*X*X%X0XeX=.a { X 1 v ] d.G.V.h.G J.v.n.M.v.f.v.x.x.j.h.j.G ",
"I.h.h.) C.G x.x.Z.F x.A ) U.) x.Y B.N o s ~ s o o }.`.*.q 6.2.eX3X%X#.q $X*.6Xs ~ Q $ ! z = !.h.h.L Z C.h.) g.v.g.x.h.!.G h.A D ",
"J.S _ h.E.) G x.L x.g.Z Z.C.g.) x.Y.  l a ! 8.! $ {.6.&.  5.;.eX-X$Xi   $X$.4X> ~ 8.~ ~ a > h.g.S Y h.^.Z j.s.Z.D n.g.g.x.F Z x.",
"T.Y Z.G F.f.A g.h.z.D.D m.K.B.h.) Z.P # & z s ~ & 8X[.=X*X*X[.y.9X%X=X=X*X-X6X> ! a h Q s X ) Z Q.g.x.).h.W.G v.F h.h.h.) W.G x.",
"G ~.) A h.x.x.R.h.T.) G _.G L.g.s.) F.M a f z 8.: wXuX<.R t.=.5XqXtX;.R y.iX7X> ~ f 0X^ z k ) v.K ) C.d.W.L D x.g.Y R.) J.K Z T.",
"G R.Y b.S.F J.Z K _ s.l.Z.G ^.F D.b.g.B.c 8Xf l $ eXiXiXiXiX{.e.y.3XiXiXiXiX7X> ~ z %.yXf l D L Z c.G.h.J.h.h.W.G ^.S A ( Z n.H.",
"l.` G B.h.x.x.F _ A J.x.L V.F G H.h.c.x.; 7Xy.-.w wXiXiXiXiXyX-X-XyXyXuXiXiX8X, Q ^ }.yXh , A s.R.n.F h.A.g.v.( x.n.A S S W.n.D ",
"v.j.) j.h.h.A h.K Z.h.v.L C.k.h.h.g.x.A A R 7X9Xh eXiXiXiXiXiXuX3XE =.tXiXiXyX[.# }.tX=.J C K g.J.Z Y _ j.D x.g.( ) h.( x.B.g.G ",
"T.G S.j.R.D.T.h.) ) h.F T.Z.) ' c.J.W.K.d.Y = # a -XiXiXiXiXiXrX-XuXuXuXiXiXiX8Xg > * V F.n.Z l.( g.).R.S W.g.J.z.D.x.Z ) ) F ).",
"h.h.( ^.h.b.C.h.j.g.h.K E.l.h.G K.Y b.v.Y Z.c a ~ E yXiXiXiXiXiXuXiXuXuXiXiXiX[.Q Q = f.G.x.) E.L ( j.n.x._ T.L.x.I.x.) C.g.) C.",
"B.G x.m.h.h.G R.h.) S Q.Y J.G x.H.Y h.G ^.x.N > ~ l y.iXiXiXiXiXuXiXiXiXuXuX7XE ~ z = F h.x.B.h.h.U.x.h.n.c.x.x.g.g.F.j._ ) ^.h.",
"E.G _ v.x.^.x.g.V.!.) F.Y Y._ ) F.d.R.g.c.g.C.v l ~ g -XwXiXiXiXiXiXiXuXtX7Xl ~ z : d.d.m.Z U.f.) j.Z.C.G h.x.c.T.v.L U.R.( v.j.",
"G G.G ^.) ) ^.) _ B.x.h.x.G ^.Y F.) x.Q.h.Y U.d.v , a w i t.y.tXuXuX'.t.;.3 e a n m.h.s.G.h.v.x.B.D n.g.c.v.(.g.) T.Y c.n.v.G x.",
"g.C.h.P.x.x.H.g.G.s.) h.g.S I.h.Y.h.x.H.A T.B.C ; 7 7 { { 4 y.w.w.w.[.5 y { y 7 - U Z.Y h.v.g.J.v._ S R.x.n.N.c.h.v.x.v.f.h.h.G ",
"I.Y j.G U.F k.C.m.) h.Z g.I.G h.Y U.Y g.R.x.( v { { { { { 7 7XrXtXtXwXi { { { { { + n.h.x.) T.h._ G D C.h.h.G C.G n.h.Z.g.h.Z A ",
"R.Z h.h.Y.h.Z _ ) x.n.A m.G.g.) x.Y.^.V h.) x.v y { { { { 7 7XuXuXiXwXi { { { { { + M.d.D.( x.g.D g.x.^.D j.) C.F k.( h.h.G A j.",
"J.h.m.G x.f.G g.h.m.l.G B.G.R.z.Y c.T.U S ) W.v 9 { { { { 7 -.wXtXtXe.3 { { { { { O x.s.F.c.G D L.h.h.).h.Z.A v.S h.x.h.g.S.Y x.",
"S ^.G A x.h.v.R.h.F.g.G ^.F D.L g.f.B.G.m.h.z.( % $ 4 { { 7 9.j d d q.% { { y $ $ m x.S s.R.) n.K ) G.f.^.G Z x.Y Y ~.) Z.G G R.",
"g._.g.D.n.h.G.Z L L h.K.n.h.L.g.W.n.x.V.G ) d.v u.a.8.9 { 4 0.a.a.q.x % { { & a.p.> K.h.!.d.Z K Z G.l.x._.h.n.S.h.!.A V G S K.v.",
"h._ G C.( x.h.G g.A D.j.L z.G G H.g.x.j.g.f.B g i.a.8.9 { y 0.a.i.q.7.@ { { & a.a.8.v j.h.f.G s.).) S h.b.G x.( n.h.Y G Z ^.h.D ",
"T.h._ ) h.l.Z h.) C.h.C.g.W.g.h.) ) l.Z g._ I x a.a.8.9 { 7 0.a.a.a.i.% { { & a.a.u.X V _ g.K l.B.S B.h.j.F h.) ` G l.K v.x.g.x.",
"Z.D S.C.R.n.^.h.) ) h.A W.v.) ` v.H.R.W._ n.b & 7.a.8.y { 7 0.a.a.a.i.% { { % a.8.x * Y R.n.F m.K L ^.W.A ^.n.R.) W.h.G h.) Z ).",
"_ l.K K.h.x.n.c.g.f.h.( I.) h.F _.) x.x.h.v.c %.].x h { { 7 0.a.a.a.i.% { { y x ].t.= c.n.x.D H.L ( x.h.n.K V.A.x.v.c.F v.) K C.",
"J.D c.n.x.B.G F.x.) G ^.U R.L x.F.d.v.G !.h.M w.uX-X3 { { 7 0.a.a.a.i.% { { 9 -.yX0XO F j.g.J.) g.J.v.n.h.x.h.v.n.g.n.B.) ) Q.h.",
"I.d.h.M.x.T.c.g.v.E.( B.h.H.c.Y B.Y ^.g.x.g.J w.uX4X3 { { 7 0.a.a.a.i.% { { 9 ,.iX0XO G G.Z U.f.h.h.B.C.f.K.n.x.V.B.Y U.I.g.n.x.",
"A F.Y ^.) _ ^.) ) C.x.g.x.S /.Y R.) x.^._ _ P w.iX4X4 { { y 0.a.a.a.i.% { { 9 ,.iX9XO ) B.h.x.h.C.F h.) c.h.^.h.) J.) j.x.v.) j.",
"f.v.) Z.j.j.Z.d.^.S h.h.) G B.) I.x.h.F.S ^.M w.iX4X4 { { 7 0.a.a.a.p.% { { y ,.uX9XO h._ n.h.B.v.L S U.c.g.M.v.h.h.x.Z.U x.g.A ",
"H.G j.Y Y.S h.C.x.g.h.A n.H.G h.f.Y.d.) !.x.b w.iX4X3 { { 7 0.a.a.a.i.% { { { <.uX9X* g.Z.) F.x.( L Z C.s.j.G Z.F Z.n.c.h.g.A G ",
"^.Z x.h.U.h.D ) h.l.J.A n.Q.s.g.h.H.^.Z g._ M w.iX4X4 { { 7 j i.a.a.i.% { { 9 ,.iX9XO d.D.) h.L G h.x.Q.A v.) C.S ) ) h.g.g.Z x.",
"Z.n.b.S _ f.) Y h.J.` G G.C.^.h.g.h.G.) A g./ w.iX4X4 { { y 7.7.i.a.a.& { { 9 ,.iX9XO d.B.x.) F S.h.h.R.h.m.S h.Y _ h.h.z.l.s.v.",
"Z W.S S c.G R.n.( n.g.) R.V D.G g.j.g.).h.( m w.iX4X4 { 9 j a.q.x a.a.9.4 { 9 ,.iX9XO Y G ^._ h.Z h.^.g.R.Y Z v.S g.F.) n.D _ ^.",
"x.W.j.D.b.x.Z.D ) G v.R.h.n.S.g.^.x.n.v.L _ m w.iX4X4 { 9 j a.a.a.a.p.q.3 { 9 ,.iX9X* j.Y.d.Z ) D R._ x.~.j.x.A.c.E.A Z F G ^.h.",
") h.G C.( x._ h.h.S D.j.L _ ) g.H.( h.h.x.x.M w.uX4X+ 2 y %.q.p.i.i.i.^ } $ 3 ,.iX0X* h.) x.g.g._.G A ) b.F c._ x.) g.h.S _.g.Z ",
"Q.h.h.) h.A.Z h.L V.j.V.z.^.) x.Y Y n.Z h.l.N w.uX3X< X 2.4.t % % % e 2. X& 1 ,.iX0XX G g.g.F x.C.G T.h.h.) ) ) b.L h.F n.z.h.C.",
"m.Z A.^.C.b.W.) b.g.h.Z ^.c.) ` J.h.D.G.( D.c w.iX4X1 * 4.5.$. .R  .#.4.5.@ I ,.iX0X= h.^.x.) W.G L G.J.S W.K.Q.h.^.) g.B.g.D R.",
") l.F G.) x.h.Z.) h.) _ F.h.g.C ^.g.h.x.v.n.b w.iX-X< O 2.4.&.. b * #.4.5.- N -.iX8X* h.h.v.A H.) l.c.g.x.) j.l.x.h.C.Z B.) _ B.",
"!.Z x.b.x.W.f.x.n.h.g.E.F ^.L h.F.d.F.Y Z.g.M r.yXt < - >.4.1.: V N *.2.4.w M . 0X0X* _ x.G U.F h.B.C.F.G x.) v.K.x.g.I.g.h.D.h.",
"C.j.c.c.h.F.v.h.B.U.) B.x.C.v.f.x._ !.d.x.h._ W y.T b.C.: t.: D.Z m.O w.E ] c.B r.t.v G R.D H.f.c.) B.B.h.^.m.h.x.J.) I.G.h.h.v.",
"Z G.h.R.h.h.R._ h.v.x.g.h.Z !.d.^.Y x.Y.Y g.H.B c _ Y K.R uXE I C.Y : wX[.N j.j.B M G.G v.c.h.s.C.h.s.L v.z.J.c.Y F.h.h.f.c.h.h.",
"c.c.) N.x.h.C.Y ^.S j.L g.f.x.) Z.x.g.F.A ^.s.h.h.x.x._ R uXE B v.F : eX].V P.x.g.j.v.j.) c.v.h.x.K A I.n.) M.c.x.h.h.R.S x.L A ",
"H.S h.g.Y.S b.C.g.x._ Z J.H.s.g.j.E.h.) T.h.g.h.G W.n.Y , ].t ] _ H.o y.,.m J.s.h.G v.s.Q.g.n.x.) Y F F.S x.s.Z.A R.x._ x.( Z s.",
"^.S c.h.H.h.Z Y h.h.R.Z v.^.d.d._ H.^.Z ) _ j.Q.) B.T.h.r *Xr F.Y ) @ &X*.B J.V.F.Z x.s.D._ h.F x.g.x.R.G C.Y B.F _ ) z.g.B.Z j.",
"h.D.h.F ) c.Y h.x.W.( G ^.j._.l.d.) H.h.A Y L.) Y ^.b.S.d 5Xf _ x.D @ 2Xe.M n.v.S.L x._ h.v.Y g.l.s.x.n.b.b.S h.g.) x.h.T.) F J.",
"Z K.S G v.S ^.) ) h.g.) G.Z J.A g.x.Y ).) ( g.x.z.b.< + @.jX&.C ^._ : fX;Xo = / n.Y Z.g.h.W.g._ Z h.(.g.J.d.F D.S C.x.) l.S g.^.",
"c.S.h.Z.b.x.C.Z Y G R.J.g.D.l.) !.x.c.v.Y h.d.).b.C < e h $Xp _ x.Y @ 6.2.i q / g.) S.x.I.s.Z ) G ^.L x.L.h.n.' x.I.A A S g.R.K ",
") b.Y v.) x.L j.h.Y m.h.L ) k.g.F.) x.) h.h.c.J I ; @ @ i w . J h.h.X q e @ . < m _ _ _ ) h.h.g.^.F Z ) x.A c.h.h.L h.h.Y ^.g.Z ",
"Q.) h.G x.R.D z.) x.j.k.V.^.G j.Y h.S.D h.` M . + i i #.$.$.@ / ) G o $.&.i i i @   = Y ` h.D x.j.g.^.j.) ' G h.J.) l.D h.k.h.W.",
"c.F n.).x.b.J.( n.h.h.F ).x.g.K J.G A.C.( b w p R :X,XfXfX*XW ' x.) T $XsX1X,X;X$.i i 1 K.h.h.^.L ) B.B.G J.^.^.h.).) h.Z._ F J.",
"h.h._ C.( h.g.Q.) h.G n.n.C.K ) R.) _ g.J.- =X,X,XfXsX3.>.J J K c.x.F.b :.3.$XgX1X,X,Xr N D.D G.g.K.c.) m._ h.' h.) Q.Z n.Y C.n.",
"^.Z l.h.h.(.j.g.V.C.h.G.A (.) h.Z.g.J.s.n.B q q 6 $ H C K H.S v.S G.V c._ K.J 5 q q q J x.A E.G h.c.F.G.A h.) x.^.x.L U.n.h.C.g."
};
