/* XPM */
static char *result[] = {
/* columns rows colors chars-per-pixel */
"64 64 226 2 ",
"   c #040503",
".  c #170E08",
"X  c #0E130B",
"o  c #14170C",
"O  c #0B1215",
"+  c #0D181B",
"@  c #171B17",
"#  c #10171F",
"$  c #2B180F",
"%  c #2A1B17",
"&  c #142509",
"*  c #15260A",
"=  c #1A2B0C",
"-  c #1D360D",
";  c #1B2715",
":  c #1E3514",
">  c #22380E",
",  c #26271B",
"<  c #3C2418",
"1  c #253714",
"2  c #233C12",
"3  c #363C16",
"4  c #0F1D27",
"5  c #121D22",
"6  c #151E28",
"7  c #241E24",
"8  c #1A2229",
"9  c #1C2634",
"0  c #1C2C3B",
"q  c #1D3639",
"w  c #222222",
"e  c #25252E",
"r  c #2C2A2A",
"t  c #342B24",
"y  c #3D2C26",
"u  c #2F302B",
"i  c #3A332D",
"p  c #242D39",
"a  c #2A3439",
"s  c #333333",
"d  c #3B3D3E",
"f  c #472919",
"g  c #53251D",
"h  c #55301E",
"j  c #59331F",
"k  c #472D24",
"l  c #5D2A20",
"z  c #4B3124",
"x  c #5A3725",
"c  c #4B3D34",
"v  c #643A26",
"b  c #6D3D26",
"n  c #78382C",
"m  c #7A3F32",
"M  c #1F4014",
"N  c #2A4614",
"B  c #294A10",
"V  c #354B18",
"C  c #355619",
"Z  c #345C1A",
"A  c #2D6513",
"S  c #38691A",
"D  c #357216",
"F  c #397416",
"G  c #3A7816",
"H  c #367319",
"J  c #3B751B",
"K  c #3D791B",
"L  c #2E4A21",
"P  c #3B5528",
"I  c #3D6921",
"U  c #3E7521",
"Y  c #3F7A20",
"T  c #415D1B",
"R  c #426B1D",
"E  c #41741D",
"W  c #437D1D",
"Q  c #4A4138",
"!  c #584A3C",
"~  c #465A34",
"^  c #734027",
"/  c #754229",
"(  c #7C452B",
")  c #64463B",
"_  c #4C6E29",
"`  c #417621",
"'  c #437C22",
"]  c #497D22",
"[  c #497229",
"{  c #457B28",
"}  c #497E2A",
"|  c #1D3749",
" . c #212F40",
".. c #253346",
"X. c #2D3841",
"o. c #3D4142",
"O. c #264458",
"+. c #24455C",
"@. c #304A5C",
"#. c #284961",
"$. c #3C5669",
"%. c #4A4A4A",
"&. c #584C44",
"*. c #5D5248",
"=. c #545453",
"-. c #725A4C",
";. c #58664F",
":. c #76664D",
">. c #7B6655",
",. c #515B63",
"<. c #5B686F",
"1. c #65696A",
"2. c #73786F",
"3. c #686E70",
"4. c #6C7173",
"5. c #893E30",
"6. c #8E4031",
"7. c #964434",
"8. c #A94C3A",
"9. c #B14E3E",
"0. c #845A4F",
"q. c #BE5542",
"w. c #876857",
"e. c #836C5D",
"r. c #936957",
"t. c #8B7262",
"y. c #927765",
"u. c #9B7F6D",
"i. c #C45844",
"p. c #CB5B46",
"a. c #D15E48",
"s. c #DE644D",
"d. c #46811E",
"f. c #49811F",
"g. c #4B881D",
"h. c #468123",
"j. c #4C8424",
"k. c #4E8924",
"l. c #4D8728",
"z. c #4E842B",
"x. c #508724",
"c. c #538A25",
"v. c #588F27",
"b. c #51862B",
"n. c #548C29",
"m. c #598F2A",
"M. c #4F9426",
"N. c #549627",
"B. c #599127",
"V. c #57902C",
"C. c #5C942A",
"Z. c #5D992A",
"A. c #558931",
"S. c #5A8E34",
"D. c #5D9433",
"F. c #60972D",
"G. c #639B2C",
"H. c #689F2C",
"J. c #649D32",
"K. c #699E36",
"L. c #659A3A",
"P. c #5EA42B",
"I. c #66A12D",
"U. c #6AA32E",
"Y. c #6DA82F",
"T. c #69A334",
"R. c #6BA435",
"E. c #6EA932",
"W. c #6DA53A",
"Q. c #72AC34",
"!. c #70A73E",
"~. c #73AB3B",
"^. c #71B034",
"/. c #77B03D",
"(. c #79B23E",
"). c #73AA41",
"_. c #9D816F",
"`. c #9D8271",
"'. c #A4826F",
"]. c #A68774",
"[. c #AE8E7A",
"{. c #B2917C",
"}. c #366688",
"|. c #386B90",
" X c #396E92",
".X c #3B729A",
"XX c #7A7D80",
"oX c #427CA6",
"OX c #7A8288",
"+X c #5185AC",
"@X c #739AB8",
"#X c #7AA0BD",
"$X c #898A88",
"%X c #978A81",
"&X c #8E908E",
"*X c #95918F",
"=X c #949594",
"-X c #999897",
";X c #B99A85",
":X c #A2A2A2",
">X c #AAABAA",
",X c #B3B3B2",
"<X c #BABABA",
"1X c #C19E87",
"2X c #C29F88",
"3X c #E49587",
"4X c #CAA58D",
"5X c #CEA991",
"6X c #D3AD94",
"7X c #DBB39A",
"8X c #E8B599",
"9X c #E7BDA2",
"0X c #EDC2A7",
"qX c #F1C5A9",
"wX c #F6CAAD",
"eX c #F8CBAE",
"rX c #FCCEB1",
"tX c #FFD1B3",
"yX c #90AEC5",
"uX c #BEC9D1",
"iX c #D5D5D5",
"px c #EBEBEC",
"aX c #F1F1F2",
"sX c #F3F4F4",
"dX c #F7F6F8",
"fX c #FEFEFE",
/* pixels */
"x.x.M.m.' v.F.j.v.G.j.x.x.k.B.k.c.j.F.c.x.c.I.' G.c.] K.E 1 *X=X&XP B U.K G.c.' /.R.' j.~.D G.g.B.J B.c.k.~.F.' k.W.W G.B.c.' v.",
"K Z.x.T.x.x.I.j.c.c.j.j.k.F E.x./.W x.I.E c.H.x.D } ] } 2.>XsXdXdX,X$X[ h.K V.c.C.v.H.G v.c.j.k.B.x.W x.v.n.C.v.f.C.x.x.x.c.x.W ",
"G.k.] j.c.' c.j.R.F x.K W Z.j.j.j.v.K c.K F.W S 5 N R y.sX#X+XyXsXfXsX=XI K V.c.' k.x.c.' k.K.j.k.U H Z.x.' k.x.j.k.j.Q.F x.F H ",
"H.G h.k.Y.K j.v.W x.' D T.G.d.Y c.R.m.K G.' Z +.oX#.OXfXdX@XoXoXyXdXfXfX=X- V - B F v.h.~.] j.k.K W W J.D k.d.C.D K.x.' x.J D j.",
"R.K C.' G.k.D ' k.j.T.D c.R.x.k.` G.~.F J h.L |.}.OXsXfXfXuXoX+X#XXXOXOX4.O 0 0 q M j.j.J.k.h.J T.j.k.~.f.~.W m.F h.j.j.' W.D x.",
"W L.j.F ' n.j.m.k.W.` F (.h.).j.d.' G.k.W { [ ; OXaXfXfXfXdXyXyX+.}.}.| | O.+.+.+.q S ' ' n.W x.{ Y v.d.m.} D j.k.W C.j.W.` D T.",
"F T.F j.S.H R.F U h.f.' G.D W.H z.b.' T.Y Z q e fXfXfXfXfX<XOXO.#.y < f < | +.+.+.| P ] T.B.K ` D j.R.j.C.k.] W.F R.W K ` D h.E.",
"x.z.' C.j.c.v.F h.F W.n.' D.' ' E.k.c.n.K q }.a fXfXfXfXuX$.#.O.k / ( ( / t | +.+.+.O c.G.W D Y k.W.` x.S.l.x.} x.G.D D J D.F.K ",
"j.l.W v.j.z.F j.' B.l.x.Y k.h.j.v.' k.F S +..Xa fXfXsX<X$.|.c j / ( ( ( ( j e +.+.+.O Y ' k.' j.T.F F ` x.D c.x.' ' j.' j.F.j.D ",
"W.K b.d.V.W.j.k.Y } k.' D.R.J z.f.v.L.j.I O..Xa fXpx,.@.$.&.[.f ( ( ( / ( ( z O.+.+.O W l.k.S k.j.k.).B.K A.K m.J.j.k.D z.' ' ).",
"x.j.' ).k.z.F.] x.k.k.U Q.x.j.Y L.K z.v.S O..Xa iX<. X,.4XtX;Xf ( ( x f ( b ) X.+.+.O k.W.x.' Q.Y ' x.v.k.b.W.~.b.E.k.j.C.h.Y G.",
"k.' x.v.` j.K ~.h.j.H F.k.F.U h.H.` ' ' S.O..X8 <. X@.6XtXtX1Xz ( ( ) w./ x t.r +.+.+ ' ` F.W B.h.W.c.' V.x.x.} j.U W.K l.Y T.x.",
"Q.D ' c.x./.x.j.v.R.h.F.F Q.W ' G.f.K.f.n.: #.6 oX.X%.wXrXrXrX].v ^ t.0XQ >.qXt +.q R x.c.D Y.f.' x.G.C.F ' ] c.~.c.K U.T.' v.j.",
"h.v.j.J.' k.K.j.c.F.k.k.c.' G.k.m.] v.B.k.2 +.4 +.<.qX7Xy.u.rXrX{.`.7Xy._.tXwXt | > W W Q.E F.x.C.F v.k.k.T.R.' j.~.W F.v.c.W c.",
"h.C.c.P.k.x.G.j.B.g.' c.j.G Y.x.^.f.x.Z 1 o 9 k c 5X0X%X=X=X;XwXtX0X`.-X=X;X0Xr 8 > N B E c.x.H.B.j.K J.c.v.N.v.j.v.x.c.k.x.k.K ",
"U.j.j.W B.W x.k.J.F k.D ' U.' x.W B.> h ^ h z / x y.-.,X7 s ,Xe.wX=.,X8 c <X>.r . < n v . Z W.f.j.K D C.k.' h.c.d.x.x.R.K k.D D ",
"H.D z.k.Y.W E k.` x.h.D F.V.f.K x.E.$ f / ( 6.( h t.*.,X  @ <Xw.wX%.,X  r <X>.t ( ( ( f j . k.j.F ' j.~.D x.f.G.F n.h.] k.J D k.",
"T.W C.K C.j.F f.k.l.D.F v.R.m.k.' G.= < b x z / h t.;X*X=X-X%X6X[.u.=X-X-X%X5Xt ( b ^ f . N Y D !.j.k.(.k.W.J n.F k.k.j.' W.K x.",
"G !.' F j.x.k.R.j.J.' K (.K L.' W ' f b c 0X:./ z y.tX;X%.&.0X8X3X*.;XQ *.wXwXt ( ^ k j = F.' v.Y Y C.f.W.U H b.h.W R.] J.' D J.",
"W T.K n.S.K J.D Y ' f.b.C.K !.K D.b.f x qXu.f ( l y.tXtXeXrX7Xy.r.'.tXtXtXtXwX< h v 7Xo ~.x.D U H c.G.f.F.k.k.K.K ~.F D ' D b.H.",
"b.{ F C.} x.v.F j.D J.x.Y V.J K H.j.3 y 8X6X:./ z u.rXtXrXeXqX6X].eXtXtXtXtXwXy y.-.9X& l.f.F ' T.n.K k.b.' x.' x.b.F F D W.n.J ",
"n.k.' k.x.] D j.U C.j.n.Y D.h.j.j.] ` Z ! 0X6X< e.qXrXtXrX>.&.u.eXtXtXtXtXtXeXi 8X6X! A h.j.' j.J.F h.' x.F k.j.` ' k.Y x.B.d.K ",
"K.F S.k.R.D.T.k.Y ' j.F T.C.W } c.J.K.K.` * $ z 4XrXtXtXrXrXrX5X7XtXtXtXtXtX7Xf < o ] W J.x.D k.` ' ).E.F W.h.J.l.J.x.H ' ` F ).",
"k.k.` !.k.x.B.j.j.j.j.' R.k.j.U K.W b.c.' N f / -.rXtXtXtXrXtXtXtXtXtXtXtXtXu./ j = W.c.J.x.` R.Y ` c.n.x.} T.K.x.G.k.h.C.h.' G.",
"m.K x.v.] k.K K.k.' H W.' J.W x.G.] x.K ~.N f ( v '.rXtXrXrXtXtXtXtXtXtXtX;X) / j = m.K ] x.B.k.j.I.c.j.x.x.x.x.h.h.C.x.' ' ~.j.",
"R.W ] v.x.~.x.j.v.Q.' C.K E.j.K F.W W.W x.E V b ( ) 1X9XrXrXtXtXtXtXtXqX4Xz ( b 1 E v.f.m.D Y.f.' k.C.C.W b.k.x.T.v.W U.W.' c.k.",
"F F.K Q.' ] ~.' j.C.c.h.x.K ~.W G.` x.W.j.] C.N f f 8 Q t.u.eXrXeX_.t.%.6 f f > J.T.j.W F.j.v.x.C.D c.h.c.n.~.j.' R.' c.c.c.W x.",
"j.C.j.P.x.x.G.j.F.d.' x.h.F H.k.E.g.c.H.F T.j.; 8 9 ....6 u.e.e.e.].O p ..6 9 > j.c.F.W k.n.f.J.B.' G R.V.x.N.v.f.v.x.c.g.k.k.F ",
"I.h.k.K H.K j.C.v.W k.D j.I.K k.W I.W ' T.n.:  .........p 7XqXqXqX9X# ..........& ' x.k.x.' T.x.h.K D C.j.j.K C.K x.k.F.j.j.D D ",
"R.D j.x.U.k.H ' ' x.l.F V.F.d.' x.Y.~.D k.' 2 ..........p 7XtXtXtX9X# ..........& D v.f.D.` x.' F j.x.~.D k.W C.K } ' k.j.K F x.",
"J.k.c.F x.f.K f.j.V.b.J B.H.T.l.' n.I.E D ' L p |  .....e >.9X9X9Xw.# ...... . .- J c.f.C.c.Y D L.j.k.(.j.F.G x.G j.x.j.' S.' x.",
"G ~.W D c.j.V.T.] F.j.K ~.F S.' f.g.m.F.m.j.R % % e ....e 8.k k k q.5 ....e % % Z K c.K W R.' n.J h.F.f.~.K D c.W W W.' F.K K R.",
"j.).j.F.n.j.F.D K ' j.J.c.j.L.h.~.b.x.n.K W 3 p.s.n 0 ..7 b 8.s.s.p.# .. .l s.a.* j.L.x.W.f.D U F F.b.k.W.l.b.S.j.Q.F D J F W.c.",
"h.' K C.` x.k.K j.F D.x.Y l.K K H.h.c.x.j.Z v s.s.n  ...6 n 9.s.s.p.5 .. .l s.s./ N x.x.j.f.K j./.' F j.b.K v.' c.} E K D ).j.D ",
"T.k.h.' j.z.D k.` C.k.V.h.W.h.j.` W b.D ' 2 5.s.s.n  ...e i.s.s.s.p.# ....l s.s.8.= ' S j.} U x.C.F B.j.k.J j.' ' ' k.U c.v.j.k.",
"C.H S.B.W.b.~.j.' ' k.D R.V.h.} B.J.W.R.h.2 g 5.s.n  ...e q.s.s.s.p.# .. .l s.5.l & F.K T.c.F V.Y Y ~.W.D ~.v.K.' R.j.K j.' S ~.",
"} l.U K.j.x.b.x.j.j.h.Y I.' k.S ~.' x.x.k.2 ! '.m k ....e q.s.s.s.p.# ....i n u.e.& L.x.n.c.F I.Y ` x.x.b.U m.S.x.n.n.J B.' U C.",
"F.F x.v.x.n.W Z.x.' K ~.E R.Y x.G.] n.K W.2 _.tXu.8 ....e q.s.s.s.p.# ....e >.rX1X* v.K k.h.J.' j.F.n.n.j.x.k.c.n.g.b.B.' ' ~.j.",
"H.k.k.c.x.T.x.j.v.Q.` C.f.I.c.d.m.W ~.j.x.1 u.tX;X6 ....e i.s.s.s.p.# ....9 e.rX1X= c.K F.D H.f.k.j.B.B.g.J.b.x.B.V.Y H.I.' k.c.",
"D F.K ~.' ] ~.W ' B.x.h.c.G ~.K R.W k.~.{ 1 u.rX%X6 ....e i.s.s.s.p.4 ....9 e.rX4X= n.' B.x.x.g.B.K j.' v.j.~.k.' J.] x.c.v.W k.",
"g.v.' Z.c.k.C.f.W.G j.j.h.K B.} I.c.j.G.F V _.tX[.6 ....e i.s.s.s.p.# ....p e.tX2X= V.g.' v.k.m.c.' G I.x.j.N.v.k.j.x.F.W x.' F ",
"H.K k.W U.G k.Z.k.j.j.D c.H.F k.j.U.d.' Q.2 u.tX[.6 ....e q.s.s.s.p.# ....9 e.tX2X@ x.j.C.' F.x.' Y D F.h.k.G C.F C.x.x.k.' D K ",
"~.F k.k.H.x.D ` j.l.J.F v.W.j.W j.I.~.D h.- u.tX[.6 ....e q.s.s.s.5.# ....9 e.tX1X& c.g.D.' k.` W j.x.R.D v.h.B.K ' ' k.h.j.F x.",
"C.n.b.G j.g.' W j.J.} K F.C.~.k.d.j.H.' D 2 u.tX[.6 ....r i.s.a.5.5.7 ....9 e.tX1X* x.' m.x.' K S.h.k.R.k.n.G x.W ] x.j.l.z.W B.",
"D W.F H b.K R.b.` x.j.' R.D S.J j.x.j.(.l.- u.tX[.6 ..9 n s.s.8.q.a.7.9 ..9 e.tX4X& c.W W ~.' l.D j.~.W R.W D n.F g.D.' n.F ' ~.",
"x.W.k.J.b.x.G.D ' K n.T.j.n.S.j.~.x.c.n.Y 2 u.tX[.6 ..9 n s.s.s.s.s.7.6 ..9 e.tX;X& L.x.R.W D Y F T.' c.).k.b.b.x.Y.D D U K ~.j.",
"` l.K B.` x.' j.k.F D.k.Y ' ' d.H.Y x.j.k.2 u.tX[.O # p &.i.a.a.p.i.v X.6 # w.tX4X= c.j.W x.j.] (.G F } b.G n.j.x.` j.j.F /.h.D ",
"W.j.j.' k.n.D k.' V.k.V.l.~.' x.' W b.D h.2 u.tX[.= @ 3.3.k w % 7 y 4.3.# T e.tX;X= E K j.' J k.B.E J.k.j.` ' ' b.Y l.J c.b.j.C.",
"B.H A.W.V.b.R.' x.j.k.F ~.c.' ' G.k.S.G.' N _.tX[.N * 4.4.%.o.o.o.%.4.3.@ C e.rX1X* Q.j.~.x.j.W.Y K J.F.F E.T.!.j./.' j.V.h.H R.",
"' l.E F.} x.k.F.' j.' ' G.} ' J ~.} j.x.n.2 _.tX_.M @ 4.4.%.o N o %.4.1.@ V e.rX1X& S.x.} m.F G.' z.x.j.b.E k.} x.} C.D v.' ' m.",
"~.D x.x.x.R.j.x.c.k.h.R.G ~.' k.G.W G.W F.2 _.0Xo - , 1.1.1.= x.- <.1.<.; _ , 9X1X* B.W x.K I.K l.B.C.F.K x.] c.T.c.h.I.W j.J.j.",
"Z.x.k.v.j.F.v.x.v.U.' v.x.C.n.d.c.] Q.f.c.C :.t.R c.W t t., J ~.A o t.! S F.R y.>.C j.W T.D H.g.c.' B.B.k.~.m.k.c.F.K H.H.j.k.c.",
"D F.f.R.j.j.R.W j.v.x.j.x.F Q.j.~.d.c.R.W f.R N E k.E -.wXc F c.v.t tXy.R K j.B S B.F.K v.x.k.W C.j.' ' v.k.F.n.W B.j.k.k.c.j.j.",
"c.v.' M.c.j.F.W ~.F k.W ' g.x.' C.x.W F.F ~.j.j.j.x.W -.qXc j.' x.t rXy.S ' G.x.j.x.n.x.' x.m.k.x.U D H.x.' M.c.c.j.x.K.F x.K D ",
"G.G j.g.Y.F b.C.] c.' D K.G.W h.k.Y.k.' K.j.k.h.K R.} c _., v.C.` , ].! I K G.h.k.K v.h.W.j.b.x.' K F G.K x.d.Z.F K.x.} x.' D h.",
"/.F v.h.H.k.D E k.h.R.F c./.f.f.] H.~.D ' ] x.W.' B.C.d *Xu c.(.E @ =X;.] k.J.m.C.F x.f.C.j.j.J k.j.x.W.K Z.W B.G ] ' k.' B.F c.",
"k.D.b.F ' v.] j.x.W.` K ~.k.).l.j.` G.k.G W L.` W R.[ v 3Xk E F.] < 3X0.C E C.m.D.Y x.h.k.c.W j.z.W c.k.b.b.H x.j.' c.j.K.' J F.",
"D T.F K n.F W.' ` k.f.' G.D L.D j.x.K (.' ` j.x.] 1 O 1.px%.W ] W.u dX&Xo 1 ` b.x.' D.f.k.R.h.' D k./.j.J.] K F.G B.b.W j.F ' /.",
"c.S.j.C.k.x.C.D W K K.J.h.F.z.' Q.x.c.v.W j.W ).Z , s =.$Xr x.F.] , $X=.s ; C !.j.` S.v.H.] D ' K ~.' x.L.k.x.} c.H.D D J j.R.` ",
"` k.W m.' x.Y j.j.W n.x.Y ' h.h.F.' x.' j.] x.S - @ @ u w X E } ` X e u @ X ; R A ] v.' ' k.j.] ~.F D ` x.D c.j.k.U k.j.K W.j.H ",
"~.' l.K x.K.J k.` k.k.z.S.~.K j.W j.S.F z.2 X o s s s %.%.@ F b.J O %.%.%.s s o X ; } ' } j.D x.l.h.~.k.W } K j.J.' l.H j.k.' ~.",
"x.K b./.k.b.J.' n.j.j.J /.c.h.Y J.W b.n.: r s Q :X:X,XiX$X~ W L.} P *XiXdX:X:X%.s u V k.~.x.] /.' ' B.B.K J.~.~.l.~.' j.Z.h.J J.",
"} j.} C.` j.h.~.' j.F n.v.V.Y ' R.` ' ` ; :X:X>XaX,X2.;.M F.} E c.] C ;.2.>Xpx>X:X:Xu h.U C.G F.' T.x.' m.} j.{ k.` E.H x.' V.n.",
"~.D j.x.k./.k.h.n.B.k.J.F ~.' j.G.f.J.' [ w 6 , 8 3 A.` ] G.G v.F F.F ] ` _ w 7 , w S j.x.J R.K k.n.F.F.F j.' v.!.x.' U.n.j.C.j."
};
