/* XPM */
static char *result[] = {
/* columns rows colors chars-per-pixel */
"64 64 58 1 ",
"  c #3E444E",
". c #3F4650",
"X c #404650",
"o c #454C55",
"O c #484E57",
"+ c #474E58",
"@ c #484F59",
"# c #4C535D",
"$ c #50555F",
"% c #4E5661",
"& c #4F5865",
"* c #505761",
"= c #535B65",
"- c #585F67",
"; c #565E69",
": c #585F6A",
"> c #57606A",
", c #5A626C",
"< c #566171",
"1 c #5D6671",
"2 c #5F6875",
"3 c #5C6778",
"4 c #5E6979",
"5 c #60656F",
"6 c #606772",
"7 c #626A75",
"8 c #646D7A",
"9 c #686F7A",
"0 c #67717D",
"q c #6A727D",
"w c #656F80",
"e c #667182",
"r c #6B7483",
"t c #6F7986",
"y c #6D778A",
"u c #6E788B",
"i c #717A86",
"p c #737C8C",
"a c #767F91",
"s c #76808E",
"d c #78818E",
"f c #768092",
"g c #7A8395",
"h c #7D8699",
"j c #7E899B",
"k c #7F8AA0",
"l c #808996",
"z c #818B9E",
"x c #87919D",
"c c #838DA2",
"v c #8691A4",
"b c #8994A5",
"n c #8793A9",
"m c #8A94AA",
"M c #8D98AC",
"N c #919AAE",
"B c #929DB2",
"V c #9AA5B8",
/* pixels */
"vgjhjjjjxkkjkbjbj7bjjjdjkk=gssgkMBkVVkhjxkMMbbkjsksssssskMBnnkjj",
"g;@#######@####>q=05##@#5t@=q>,8#%**#=#*$*####>#1>1.##+@####@%,7",
"s;,#@$#$#*$*$$#7@*q=#@##=7o>q,*#%*=#*=>=**$#=#>=,s*@#*>######$$7",
"p###&$$$$$$*$$$#=*q#####@>O>>****>*=*====*==%=$#>0##$##*%%%%*$#7",
"q#$;;=$&**#==$*#>*7$###*$q@>$**===*=*=*====**=*#>>#$#*****=****2",
"7$$$$#$$==$#=*#=,*0$**###so=$*=*======--=====*=*==***=*====*=**2",
"e##*=$==**$=====7=s*####$to-**===-=>=>->-->=====>>*$=>#*>=*=>*=7",
"e;$==>=====$==#=>#s*#*$#*,o-*====->>>->>>>>>>====1>$=>,>=>>=>=>1",
"2===-=1=>=--==-*,*s&$*$*#>o>$>$>>>>>,,,>>,-,>>>=>,$-=>-->>>>==>1",
"2==>----=>>>>>>->*q=$>$$$>o>7>>>>>,,,,,,,,,>>>1-$1>>>$-,>>>,,=>5",
"1--===->>>>>>,>=>$8>$$==$,o>,>>>11,,,21111>,2>,>>5>$>>>,,>,,>,>1",
">=->->-,>>>>,>>=>*9$====$,o.oooo..@.@...........o1>>,,1,,,,1,,,,",
">>>>>,,,,,,>,>>>>=9$>$>$>,odtbVtsxsitq92s,t>1sMs8q>,,,,1111,1,,,",
">>>>,>,1,,,,,,,,,$8>$>=>>1O,9$###=*#***1-=*q##>*02q>1,,776611,5,",
">>>,,11,1,1,5,,,,&9,>>==>9O$#$$##**#=***#==,=>>=82q,11,177786,71",
"5->,>,117,1,15,-2$98$>>>70O=$$&$===**==**#>-,,-=2X  XXXX.XXXXXXo",
"208>52221,111,20e=0>>>>=>9+***==**;**=*=**;*%-,>=v89Mb88rq2,>>;t",
"@........ooo.o..o.7>=>>>>0+*====;=*;=;==;*7***#=*s7++@++@++++$,2",
"jtqskdqqqssMkgxss17>>>>,;,+;====;$*;;;*,>$,=**$##r@++@@##@#+O++7",
"q>,#>==>=>$$>$=7#$7,>,>,>,+,;===;;;>=,>;>*7**##**7o+@@#####@#+Oq",
",@*====-=$=>=&=$$$8>,,,,,7@,;-;>>-->-,-->$1*=*=#*6#####$*###@#@7",
",*===>-->>>=>11=*=8>>>,,,2+<7=;,>,,>,::1>$7=;=*=*1#%%#**=$*$###1",
",====>>>,>,>>>==>*8>,,,,,1O>,>;,,,,,<,-1>*1;;=;==,#****$*=;***#,",
"2>1=>>=>,,,,>>>4>=7,,,1,,1+%%#%%#%@#@%%##@1*;=;=*7***%==;;;-=*#6",
",>;&;<3>3<3133,>,#2,,1,117@s>7,,7179epi96,7,:;=:*9**;=;;;;-=*;*,",
"ssffgtsuuuu#ttuhs,4,111611o>5;-;,,>;,,-11=,:;;-=*9;;;;;,>=,>>-;5",
"s*&&=>==$>2+#$$#,#23161217o1;>>;,,,,,,;;-=3,,;,,#8-;>-,,>>,,=;*6",
">1>==>>>>91+>>#>,$22,2,216o1*-,>,,,17,,>,*3=-:=>*4*>>,:,,,,,>-*,",
">=>>>>>>=>8o$$$#&$4911,270+17>,,1,,,,3,71%3,1111=37,,<11616<,,6,",
",=>,>>>,>>1o$$>$=$%>&&%%&#o&&%&==&%%====&#==%&=;#==*%*%%&*#%**#=",
"2>,,,,,1,,,o>$$&>$vjggxnnMnMhggggagghaghgMhgyg9caggamhc*ggglmMmh",
",>,,,71,161o>>$>=#qq$>%>021=>;=;;=1789&===;;;236q%*&*7*@+8@o+@-r",
"78211027748+>>>>>%71====5,;>>>>>;=:8:,=;;;;=--,1,#*=;,,@o6+++$=7",
"&%%#%%%#%%#o1>;>,%7**=-=>,>>,,,>;=*76==--;>>;1>,=**;$=r##@##+@@>",
"p;>q&;6xmq7+7,,,,$7*;;;;>,,,>;,,:,;7-;=,:1-:,,<7*;;;>>,+#@###$#=",
"6,>%%%=$*1*@8>11,*7;=;=,>,1,,>1,<,=71,:,,-367,*6=>>>>>,+####$$#=",
",%%*=;$=*$;O1,217%79=,,1,1611,,,>,7719-6717116*7>,,>,,,@$****$$>",
"9=***;*;;;>O431>8#3<<,;;;,1<,323;44<1<:313133;#6-,,,,77+,***;==>",
"r*;;--;;>*;#r88e8e8we8ere8ue8+rtafpgggaa8wayee,6q,227q3+>=*;;*;>",
"1;;,-,>>,>;Oq0###@#$7dxm8##10+g,==;=;;;177===*839,227t8+#;>*>--,",
",=1-;9,,,>*O=7#=#*##@#%####2,o21=;;=>>=-;,;;,781<;:<1,;+;=>>>>,5",
",-:;8,1,,>1@$#$$#****###$##$qO2=;=;;->-,-,,>=;13::1:7>*O;>>>>,>5",
",:,,,17,17,@*>$**$**#*#*$$#$q@1>;=-,,2,,,-,=-;:88*o+o7>@;>,,1,,5",
"771:7297777@>#$*#**=*=*=$=&$>+>,>-,,,,211,1,::=3oOoo+o*+>,,66,>6",
"oo.o+XooXXXo-#******;=;*==$$>+77>,,,<7,371,,17*8O@@@@@1+,,,,,77,",
"qq2,,q,909lo>;**=*==;**-;*==>o%%%%&=&&%%&&&&&&#:@##@##9o-9131,9,",
">,;$**#**6;+9===;*;;;->>=;;=9#bMh8epNmvvhmzcbmt:####%*7o33377491",
">$**=**##**+f=*;;->;,->-;;;;t#>q%##;;$**%***=191#%%#**7o%$+%%#%#",
"7**;==;*;**O7*;>>;>,>>->,>>>9$01*******=*=;*==86#**=**7+#=+;,i1,",
"7**;;;*>=*;+;;>>,,>,,,,>>,>>2#7#$*=**;*=====*=68**==*==O;9###;6,",
"9*;->>>>--,+>>>>>,>>5>,,,,,,;#,%=**;=>;;::=:;,37*=;;=;,O>##$$$$7",
"5;;>>>,-7;9+>>,>7,,1,76,1,,,,#,===;;;=::=:=::11,===;;-3@,**;==;7",
"6->,,,,,,,7O>>;91,6,1,117,,,,$;**;>>:=:;,,,-;-31*;-,,,,O7=;;>>;,",
"1,>,,,,,,,>O--,>,171,1,7165,>#2;=>>>--1,<,--::*1;,,,,1,o=$;>,,>,",
",;-16,7,7*,O,>,,,71777277,6,,%2#>>,,,,,,1,,,:;*<-,1,1,6+=;>,,>>7",
"171,7767,7,O,9,,,6729771,17,7%>5>,,,,6<:1:1116*<7,,6777+;7,77791",
";;&;;&;;=;;+&%%%&*&&&%#%&&%&=%;*%*&%&&==%&&&&&%;&&;<;=;O&;><<;&;",
"hghkknjgjjbmmmkkcmh1kaggjkcgafggcmcghagfacvcvhghgggfaaczmvmmnjkg",
"s>=#>&*=*;==8;==*1*;a7%**<&%==*=#**>7if1#@%***====;;&*;;4>#*%=38",
"4=*%%&===;;=;;;;=1=18,%****===;-;*;*;6e=###*=*;==;;:;*->;*;****7",
",#***=;;>;;,>>>-;;==7%&=;*>;:;->:;===1,+##%==;;;=,76,>>>::==**%7",
",#%===;;>,,:;>,>;;=*:%%=;->>-,<,;:;==7:@%%%=;;===<,11<,,;:=*=*#7",
",1>*=;>>,,<<;,,,;7,=<7&=;=,>;<<;1,;=1816&&==;-,:;371;1:<,,<**;1:",
",=%=;&&&=&%&;;;;&==*<:&;=;<>&&;=<;<;=:<*%%%%==&<%+%%&&=;;;&;&*;="
};
